<!-- Generated by IcoMoon.io -->
<svg version="1.1" xmlns="http://www.w3.org/2000/svg" width="1893" height="1024" viewBox="0 0 1893 1024">
<title></title>
<path fill="#3a549b" d="M1032.873 260.373c4.865 2.771 8.647 6.963 10.838 12.006l0.063 0.164c1.77 4.946 2.793 10.651 2.793 16.596 0 0.226-0.001 0.452-0.004 0.678v-0.034c0.002 0.17 0.003 0.37 0.003 0.571 0 5.795-1.023 11.351-2.899 16.497l0.107-0.335c-2.272 5.34-6.153 9.63-11.027 12.357l-0.128 0.066c-6.106 3.094-13.313 4.906-20.943 4.906-1.016 0-2.025-0.032-3.026-0.096l0.137 0.007h-34.987s0 0 1.268-2.028c0.089-0.685 0.139-1.478 0.139-2.282s-0.051-1.597-0.149-2.374l0.010 0.093v-54.762c0.081-0.647 0.128-1.396 0.128-2.155s-0.046-1.508-0.136-2.243l0.009 0.088s0-1.775-1.268-2.028v0h35.747c0.808-0.046 1.753-0.072 2.704-0.072 7.466 0 14.556 1.614 20.939 4.511l-0.318-0.129zM1029.324 288.515c0.020-0.388 0.031-0.843 0.031-1.301 0-4.22-0.946-8.219-2.637-11.797l0.071 0.168c-1.764-2.889-4.651-4.945-8.040-5.566l-0.073-0.011c-4.311-0.989-9.262-1.555-14.345-1.555-0.751 0-1.498 0.012-2.243 0.037l0.108-0.003h-7.859s0 0 0 0 0 0 0 2.282v36.001c-0.081 0.381-0.128 0.819-0.128 1.268s0.047 0.887 0.135 1.309l-0.007-0.041h7.859c0.553 0.017 1.203 0.026 1.856 0.026 5.003 0 9.874-0.564 14.554-1.632l-0.437 0.084c3.493-1.033 6.384-3.185 8.333-6.033l0.034-0.052c1.779-3.377 2.822-7.379 2.822-11.625 0-0.459-0.012-0.915-0.036-1.368l0.003 0.063z"></path>
<path fill="#3a549b" d="M1106.65 323.502s0 0 1.268 0c0.084-0.265 0.132-0.571 0.132-0.887s-0.048-0.622-0.138-0.909l0.006 0.022c0.115-0.495 0.181-1.064 0.181-1.648s-0.066-1.153-0.19-1.699l0.010 0.051c-3.298-10.261-12.689-17.586-23.813-17.747h-5.85s0 1.268 0 2.535v13.437c-0.089 0.685-0.139 1.478-0.139 2.282s0.051 1.597 0.149 2.374l-0.010-0.093s0 1.775 0 2.028h-20.789c0.11-0.302 0.174-0.651 0.174-1.014s-0.064-0.712-0.181-1.035l0.007 0.021c0.089-0.685 0.139-1.478 0.139-2.282s-0.051-1.597-0.149-2.374l0.010 0.093v-54.255c0.081-0.647 0.128-1.396 0.128-2.155s-0.046-1.508-0.136-2.243l0.009 0.088c0.11-0.302 0.174-0.651 0.174-1.014s-0.064-0.712-0.181-1.035l0.007 0.021h37.269c0.784-0.067 1.698-0.105 2.62-0.105 6.881 0 13.265 2.125 18.533 5.754l-0.11-0.072c3.933 3.788 6.375 9.099 6.375 14.981 0 0.438-0.014 0.873-0.040 1.304l0.003-0.059c0.014 0.272 0.022 0.59 0.022 0.91 0 4.461-1.536 8.563-4.108 11.806l0.030-0.039c-2.545 3.279-6.14 5.635-10.274 6.569l-0.12 0.023c3.67 1.811 6.782 4.194 9.355 7.070l0.026 0.029c3.329 3.528 6.341 7.426 8.946 11.604l0.181 0.312c0.993 1.971 2.266 3.65 3.791 5.060l0.012 0.011c0.832 0.95 1.844 1.719 2.987 2.258l0.056 0.024h-27.888zM1077.494 285.473s0 1.775 0 2.282v0h12.676c0.355 0.025 0.77 0.040 1.188 0.040 3.403 0 6.583-0.958 9.284-2.619l-0.077 0.044c2.063-1.864 3.354-4.549 3.354-7.535 0-0.382-0.021-0.759-0.062-1.131l0.004 0.046c0.005-0.104 0.007-0.226 0.007-0.349 0-2.478-1.077-4.704-2.788-6.235l-0.008-0.007c-2.347-1.47-5.199-2.342-8.255-2.342-0.485 0-0.966 0.022-1.44 0.065l0.061-0.004h-13.944s0 1.268 0 2.282z"></path>
<path fill="#3a549b" d="M1193.357 323.502v0c0.068-0.381 0.106-0.82 0.106-1.268s-0.039-0.887-0.113-1.313l0.007 0.045c0.039-0.456 0.062-0.986 0.062-1.521s-0.022-1.066-0.066-1.59l0.005 0.068v-2.789c0.068-0.381 0.106-0.82 0.106-1.268s-0.039-0.887-0.113-1.313l0.007 0.045c-0.218-0.128-0.481-0.204-0.761-0.204s-0.542 0.076-0.768 0.208l0.007-0.004h-29.663c-0.299-0.134-0.647-0.212-1.014-0.212s-0.715 0.078-1.030 0.218l0.016-0.006v5.324c-0.104 0.572-0.163 1.23-0.163 1.901s0.059 1.33 0.173 1.969l-0.010-0.067c-0.077 0.305-0.121 0.654-0.121 1.014s0.044 0.71 0.127 1.044l-0.006-0.030s0 0 0 0h-22.818l1.521-2.028c0.689-1.319 1.374-2.911 1.948-4.554l0.080-0.263c3.042-6.845 7.099-16.986 12.676-29.916s9.127-21.296 10.395-25.353c0.752-1.626 1.289-3.512 1.513-5.493l0.008-0.085s0 0 0 0h25.353c0.216 2.166 0.848 4.144 1.815 5.912l-0.040-0.081c0 3.803 5.071 12.676 10.902 27.381s9.888 23.578 11.662 27.128c0.673 1.743 1.527 3.25 2.567 4.607l-0.032-0.043c0.562 0.873 1.335 1.565 2.249 2.014l0.033 0.015h-25.353zM1186.258 298.149s0 0 0 0c0.038-0.267 0.060-0.574 0.060-0.887s-0.022-0.621-0.064-0.922l0.004 0.035c-2.282-5.578-4.564-11.409-6.592-17.493l-3.042-9.381-10.395 25.353c-0.048 0.305-0.076 0.656-0.076 1.014s0.027 0.709 0.080 1.052l-0.005-0.038s0 0 0 0h19.522z"></path>
<path fill="#3a549b" d="M1231.132 325.023c-6.085 0-9.127-2.535-9.127-7.352-0.023-0.209-0.036-0.452-0.036-0.697 0-2.041 0.893-3.873 2.31-5.128l0.007-0.006c1.975-1.107 4.334-1.759 6.845-1.759s4.87 0.652 6.917 1.796l-0.072-0.037c1.424 1.26 2.317 3.093 2.317 5.134 0 0.246-0.013 0.488-0.038 0.727l0.003-0.030c0 4.817-3.042 7.352-9.127 7.352z"></path>
<path fill="#3a549b" d="M1061.522 491.337v20.029h-95.58v-101.411h22.818v81.89z"></path>
<path fill="#3a549b" d="M1181.441 491.845v19.522h-105.214v-101.411h103.693v19.522h-80.368v21.043h66.678v19.522h-66.678v22.31z"></path>
<path fill="#3a549b" d="M1213.132 409.448l34.48 46.903 34.226-47.663h25.353l-47.917 67.946v34.733h-23.325v-34.733l-49.184-67.185z"></path>
<path fill="#3a549b" d="M1423.814 425.167l-76.058 66.678h78.34v19.522h-113.074v-15.719l76.058-66.678h-73.523v-19.522h108.256z"></path>
<path fill="#3a549b" d="M1528.267 489.816h-61.607l-11.155 21.55h-25.353l54.001-101.411h25.353l54.255 101.411h-25.353zM1518.38 470.802l-21.043-41.325-21.043 41.325z"></path>
<path fill="#3a549b" d="M1035.916 649.539h-61.607l-10.902 21.55h-25.353l54.255-101.411h25.353l54.255 101.411h-25.353zM1026.028 630.524l-21.043-41.579-21.043 41.579z"></path>
<path fill="#3a549b" d="M1200.456 568.917v101.411h-20.282l-73.27-73.777v73.777h-22.564v-101.411h25.353l68.706 69.974v-69.974z"></path>
<path fill="#3a549b" d="M1343.699 650.3c-12.928 15.605-32.311 25.471-53.998 25.471-1.428 0-2.846-0.043-4.253-0.127l0.194 0.009c-41.072 0-65.917-20.282-65.917-54.255s25.353-54.255 65.917-54.255c0.701-0.023 1.525-0.036 2.353-0.036 19.481 0 37.251 7.324 50.707 19.369l-0.073-0.064-18 13.183c-8.231-7.905-19.43-12.772-31.766-12.772-1.044 0-2.080 0.035-3.106 0.103l0.139-0.007c-26.874 0-42.339 11.662-42.339 34.48s15.972 34.226 43.1 34.226c1.415 0.16 3.056 0.252 4.718 0.252 11.835 0 22.587-4.634 30.542-12.186l-0.019 0.018v-10.141h-38.536v-20.029h60.34z"></path>
<path fill="#3a549b" d="M1468.435 651.567v19.522h-105.214v-101.411h103.693v19.522h-80.368v19.268h67.185v19.522h-67.185v22.564zM1417.729 557.255h-17.493l21.296-23.325h29.916z"></path>
<path fill="#3a549b" d="M1582.522 650.807v20.282h-95.58v-101.411h23.325v81.89z"></path>
<path fill="#3a549b" d="M1597.227 671.089v-101.411h23.325v101.411z"></path>
<path fill="#3a549b" d="M1737.935 637.623l21.043 10.648c-12.223 15.554-31.035 25.452-52.159 25.452-1.273 0-2.537-0.036-3.791-0.107l0.174 0.008c-38.536 0-63.382-20.282-63.382-54.255s25.353-54.255 64.396-54.255c0.967-0.052 2.098-0.081 3.236-0.081 20.852 0 39.39 9.911 51.159 25.28l0.113 0.154-21.296 10.648c-6.613-10.050-17.841-16.592-30.597-16.592-1.010 0-2.010 0.041-2.998 0.121l0.13-0.009c-25.353 0-40.311 11.662-40.311 34.226s15.972 33.973 40.311 33.973c1.137 0.123 2.456 0.193 3.791 0.193 12.368 0 23.329-6.025 30.108-15.3l0.073-0.105z"></path>
<path fill="#3a549b" d="M1856.586 649.539h-61.861l-10.902 21.55h-25.353l54.001-101.411h25.353l54.001 101.411h-25.353zM1846.699 630.524l-21.296-41.579-21.296 41.579z"></path>
<path fill="#3a549b" d="M1068.114 730.668v101.411h-20.536l-73.27-73.777v73.777h-22.564v-101.411h25.353l68.706 69.974v-69.974z"></path>
<path fill="#3a549b" d="M1093.72 832.586v-101.411h23.325v101.411z"></path>
<path fill="#3a549b" d="M1248.119 813.065v19.522h-105.214v-101.411h103.693v19.522h-80.368v20.789h67.185v19.775h-67.185v22.31z"></path>
<path fill="#3a549b" d="M1369.052 750.697h-45.889v81.89h-23.325v-81.89h-44.367v-20.029h113.581z"></path>
<path fill="#3a549b" d="M1372.094 781.627c0-34.226 25.353-54.255 64.903-54.255s64.903 20.029 64.903 54.255-25.099 55.016-64.903 55.016-64.903-21.043-64.903-55.016zM1478.069 781.627c0-21.803-15.719-34.226-41.072-34.226s-41.072 12.423-41.072 34.226 15.719 33.973 41.072 33.973 41.072-12.169 41.072-33.973z"></path>
<path fill="#3a549b" d="M611.256 774.275v0c-2.66 0-4.817-2.157-4.817-4.817v0s0-33.466 0-64.65c0.022-0.63 0.034-1.37 0.034-2.114 0-35.845-29.058-64.903-64.903-64.903-2.334 0-4.639 0.123-6.909 0.363l0.283-0.024c-0.33 0.081-0.708 0.127-1.098 0.127-2.66 0-4.817-2.157-4.817-4.817s2.157-4.817 4.817-4.817c0.389 0 0.768 0.046 1.131 0.133l-0.033-0.007c1.113-0.054 2.418-0.086 3.73-0.086 22.26 0 42.433 8.937 57.126 23.42l-0.010-0.010c12.423 13.494 20.040 31.581 20.040 51.447 0 0.453-0.004 0.904-0.012 1.355l0.001-0.068c0 31.184 0 64.396 0 64.903-0.131 2.466-2.097 4.433-4.552 4.563l-0.012 0.001z"></path>
<path fill="#3a549b" d="M196.484 896.222h-8.62l-5.578-1.521-4.817-2.535c-1.553-0.576-2.89-1.259-4.133-2.076l0.077 0.047-3.803-2.789c-1.247-0.821-2.328-1.741-3.285-2.777l-0.011-0.012-3.549-3.042c-0.82-1.149-1.739-2.148-2.766-3.023l-0.023-0.019-3.296-4.817c-0.613-0.726-1.125-1.563-1.498-2.473l-0.023-0.062c-2.462-4.086-4.314-8.85-5.281-13.927l-0.043-0.271-1.521-7.099c-0.057-0.759-0.090-1.643-0.090-2.535s0.033-1.777 0.097-2.652l-0.007 0.117c-0.124-1.329-0.194-2.875-0.194-4.437s0.071-3.107 0.209-4.633l-0.014 0.197c0-2.535 0-5.324 0-8.366l1.521-8.62 2.282-7.606c0-3.042 2.028-5.578 2.789-8.113l1.775-3.803v-2.535s0-2.282 1.775-3.549 1.521-3.296 2.789-5.578 2.535-4.817 3.803-7.352l2.028-3.042v-3.549l2.028-3.296c0.718-0.89 1.389-1.885 1.973-2.935l0.055-0.107 6.338-6.845v-2.789l1.521-2.028 1.268-1.775v-1.775l2.282-2.789c-0.055-0.267-0.087-0.573-0.087-0.887s0.032-0.621 0.092-0.917l-0.005 0.029 1.521-1.775 2.028-2.789 2.282-2.535 10.648-5.324c0.881-0.94 2.131-1.525 3.517-1.525 0.556 0 1.091 0.094 1.588 0.268l-0.034-0.010h11.409l3.549 1.268h12.423l3.042 1.268h3.803l3.042 1.521 2.282 1.268h2.535l2.282 1.268 2.028 1.268h4.31l4.31 2.789 2.535 1.521 3.803 2.789h1.521l2.789 2.028 4.056 3.042 5.324 4.817 1.775 1.521 5.324 5.324 5.071 6.338 1.521 2.535v1.521l3.042 5.324s0 2.789 2.028 4.056c-0.029 0.379-0.046 0.822-0.046 1.268s0.017 0.888 0.050 1.326l-0.004-0.058c1.53 3.736 2.845 8.156 3.73 12.729l0.073 0.454c0 2.282 0 4.817 0 6.845 0.058 0.947 0.091 2.054 0.091 3.169s-0.033 2.222-0.098 3.32l0.007-0.151c0.105 0.951 0.164 2.053 0.164 3.169s-0.060 2.219-0.176 3.304l0.012-0.135c0 2.789-1.521 5.578-2.282 7.859l-2.282 5.578c0 2.282-2.282 4.056-3.042 5.578l-3.549 4.817c-0.745 1.152-1.582 2.15-2.526 3.034l-0.009 0.008-3.296 3.042c-0.731 0.783-1.565 1.455-2.484 2l-0.052 0.028-3.042 2.028-3.549 2.028c-4.416 2.285-9.559 3.898-14.998 4.543l-0.213 0.021c-0.159 0.019-0.344 0.029-0.531 0.029-2.492 0-4.542-1.893-4.792-4.319l-0.002-0.021c-0.020-0.16-0.031-0.344-0.031-0.532 0-2.353 1.78-4.29 4.067-4.537l0.020-0.002c4.641-0.692 8.823-1.932 12.733-3.673l-0.31 0.123 2.282-1.521 5.071 15.212 2.789-1.775h1.521l4.817-4.817c0.924-1.235 1.847-2.643 2.682-4.107l0.107-0.203c1.268-1.775 2.028-3.296 2.789-4.564l1.521-4.564c0.716-1.847 1.413-4.134 1.957-6.481l0.071-0.364c0.050-0.758 0.078-1.643 0.078-2.535s-0.028-1.777-0.084-2.655l0.006 0.12c0.061-0.797 0.095-1.725 0.095-2.662s-0.035-1.865-0.102-2.785l0.007 0.123c0.054-0.796 0.085-1.725 0.085-2.662s-0.031-1.866-0.091-2.787l0.007 0.125c-0.622-4.175-1.685-7.931-3.159-11.472l0.117 0.317c-0.392-0.729-0.818-1.647-1.197-2.589l-0.071-0.199-1.521-3.296c-0.95-1.782-1.875-3.274-2.882-4.703l0.093 0.14v-1.775c0.057-0.228 0.089-0.491 0.089-0.761s-0.032-0.532-0.094-0.783l0.005 0.023c-1.521-2.028-3.296-4.056-4.817-6.338-0.745-0.619-1.409-1.283-2.008-2.003l-0.020-0.025-1.521-1.268h-1.268l-5.071-4.564-3.803-2.789-2.282-1.775-5.324-3.803-2.028-1.268-4.31-2.535h-7.099l-2.028-1.268h-6.845l-11.916-14.705h-24.085l-1.268-7.606-2.028 2.282-2.282 2.789-1.521 1.775v2.535c-0.556 1.071-1.232 1.99-2.028 2.789v0l-1.268 2.028v1.268c-0.402 0.776-0.823 1.44-1.294 2.064l0.026-0.036v4.31l-2.789 4.056-1.775 2.789-10.395 4.817v3.803l-1.521 2.789c0 2.282-2.789 4.817-3.803 7.099s-2.028 3.549-2.789 5.324c-0.048 0.456-0.075 0.985-0.075 1.521s0.027 1.065 0.080 1.587l-0.005-0.066v2.789l-1.521 3.296c0 2.282-1.521 4.817-2.535 7.352s-1.521 4.817-2.028 7.099c-0.718 2.281-1.256 4.952-1.51 7.705l-0.011 0.154c0 2.789 0 5.071 0 7.606v7.859c-0.060 0.57-0.094 1.232-0.094 1.901s0.034 1.331 0.101 1.983l-0.007-0.082c0 2.028 0 4.31 0 6.592 1.025 4.322 2.506 8.125 4.431 11.651l-0.121-0.243c-0.040 0.267-0.062 0.574-0.062 0.887s0.023 0.621 0.067 0.922l-0.004-0.034c0.982 1.527 1.983 2.851 3.075 4.094l-0.033-0.038c0.541 0.898 1.217 1.655 2.010 2.268l0.019 0.014 2.789 2.535 2.535 2.028 3.549 2.282 3.296 1.521h3.296l4.564 1.268h9.888l7.859-1.775c2.034-0.616 3.799-1.391 5.446-2.347l-0.121 0.065 4.817-3.042c0.832-0.868 2.001-1.407 3.296-1.407s2.464 0.539 3.294 1.406l0.002 0.002c0.868 0.832 1.407 2.001 1.407 3.296s-0.539 2.464-1.406 3.294l-0.002 0.002c-1.77 1.385-3.764 2.65-5.88 3.71l-0.205 0.093c-2.042 1.294-4.405 2.337-6.922 3.003l-0.177 0.040-8.873 2.028z"></path>
<path fill="#3a549b" d="M214.992 876.447v0l-4.817 2.282c-1.427 0.593-3.123 1.117-4.877 1.487l-0.193 0.034c-3.838 0.691-6.712 4.006-6.712 7.991 0 0.491 0.044 0.972 0.127 1.439l-0.007-0.049c0.392 3.928 3.625 6.985 7.595 7.099h1.279l7.859-2.028 6.592-3.296c2.554-1.465 4.247-4.176 4.247-7.282 0-1.416-0.352-2.75-0.973-3.919l0.022 0.045c-1.12-2.719-3.749-4.597-6.817-4.597-1.213 0-2.357 0.294-3.366 0.814l0.041-0.019z"></path>
<path fill="#3a549b" d="M284.205 864.277c-1.051-3.024-3.877-5.155-7.2-5.155-1.062 0-2.073 0.218-2.991 0.61l0.050-0.019c-3.308 1.651-7.146 2.892-11.186 3.521l-0.222 0.028c-2.191 0.236-4.078 1.37-5.31 3.022l-0.014 0.020c-0.995 1.387-1.591 3.119-1.591 4.99 0 0.386 0.025 0.766 0.075 1.139l-0.005-0.044c0.12 4.107 3.478 7.391 7.603 7.391 0.269 0 0.535-0.014 0.796-0.041l-0.033 0.003h4.31c4.427-0.998 8.319-2.393 11.974-4.196l-0.312 0.139c1.888-0.946 3.329-2.551 4.039-4.507l0.018-0.056c0.421-1.013 0.666-2.189 0.666-3.423s-0.245-2.41-0.688-3.483l0.022 0.061z"></path>
<path fill="#3a549b" d="M281.67 486.774c-0.054 0-0.117 0.001-0.181 0.001-7.698 0-14.648-3.207-19.585-8.357l-0.009-0.010c-20.029-19.775-16.986-69.974-16.986-72.256 0.261-2.437 2.306-4.318 4.791-4.318 0.098 0 0.196 0.003 0.293 0.009l-0.013-0.001c2.552 0.135 4.571 2.237 4.571 4.811 0 0.091-0.003 0.182-0.008 0.272l0.001-0.013c-0.318 3.984-0.5 8.626-0.5 13.31s0.181 9.326 0.538 13.919l-0.038-0.609c0.158 14.482 5.090 27.783 13.295 38.433l-0.111-0.15c3.193 3.355 7.693 5.442 12.68 5.442 0.714 0 1.417-0.043 2.108-0.126l-0.083 0.008c0.008 0 0.016 0 0.025 0 2.622 0 4.779 1.99 5.043 4.542l0.002 0.022c0 0.008 0 0.016 0 0.025 0 2.622-1.99 4.779-4.542 5.043l-0.022 0.002z"></path>
<path fill="#3a549b" d="M549.649 486.774h-2.282c-2.437-0.261-4.318-2.306-4.318-4.791 0-0.098 0.003-0.196 0.009-0.293l-0.001 0.013c0.266-2.574 2.423-4.564 5.045-4.564 0.009 0 0.018 0 0.027 0h-0.001c0.619 0.084 1.335 0.132 2.062 0.132 4.82 0 9.15-2.102 12.122-5.439l0.014-0.016c7.276-13.269 11.555-29.073 11.555-45.877 0-5.826-0.515-11.533-1.501-17.076l0.086 0.585c-0.021-0.169-0.033-0.364-0.033-0.562 0-2.404 1.76-4.396 4.062-4.758l0.027-0.004c0.235-0.043 0.506-0.067 0.782-0.067 2.366 0 4.311 1.8 4.541 4.105l0.002 0.019c0 2.028 6.085 50.706-12.423 70.227-4.659 5.157-11.371 8.384-18.837 8.384-0.33 0-0.659-0.006-0.986-0.019l0.047 0.001z"></path>
<path fill="#3a549b" d="M633.82 669.314c-0.008 0-0.017 0-0.027 0-2.482 0-4.525-1.877-4.788-4.289l-0.002-0.021c-7.859-87.214-20.536-220.316-34.226-357.728-1.258-53.574-23.938-101.616-59.769-136.084l-0.063-0.061c-26.844-21.499-61.302-34.501-98.798-34.501-0.919 0-1.836 0.008-2.751 0.023l0.138-0.002h-27.888c-0.742-0.012-1.618-0.019-2.496-0.019-37.494 0-71.975 12.899-99.249 34.5l0.333-0.255c-36.306 34.466-59.345 82.602-60.841 136.126l-0.006 0.272c-13.691 137.159-25.353 269.754-33.973 356.714-0.251 2.447-2.301 4.339-4.793 4.339-0.187 0-0.372-0.011-0.553-0.031l0.022 0.002c-2.454-0.383-4.31-2.481-4.31-5.013 0-0.020 0-0.040 0-0.060v0.003c8.113-87.214 20.536-219.809 34.226-356.714 14.451-144.765 101.411-177.47 170.117-179.244h28.649c69.72 2.028 155.666 34.733 170.117 179.244 13.944 137.412 25.353 270.261 34.226 357.728 0.018 0.154 0.029 0.332 0.029 0.513 0 2.441-1.917 4.435-4.328 4.558h-0.011z"></path>
<path fill="#3a549b" d="M631.792 643.201c-0.008 0-0.018 0-0.028 0-2.342 0-4.272-1.764-4.533-4.035l-0.002-0.021c-13.944-103.439-25.353-170.371-54.255-228.175s-73.523-108.256-150.342-164.793c-83.664-61.607-83.157-98.369-82.904-99.89 0-0.009 0-0.019 0-0.030 0-2.38 1.93-4.31 4.31-4.31 0.179 0 0.355 0.011 0.528 0.032l-0.021-0.002c2.549 0.138 4.564 2.239 4.564 4.81 0 0.002 0 0.005 0 0.007v0s0 34.226 79.354 91.777 123.722 107.749 152.117 168.343 41.325 126.764 55.269 230.964c0.008 0.106 0.012 0.229 0.012 0.353 0 2.446-1.732 4.487-4.036 4.965l-0.033 0.006z"></path>
<path fill="#3a549b" d="M415.786 603.904c-45.53-2.174-84.797-27.086-106.912-63.555l-0.331-0.588c-27.363-41.602-43.648-92.608-43.648-147.417 0-1.653 0.015-3.302 0.044-4.948l-0.003 0.248c0-3.296 0-26.874 0-32.198 0-0.009 0-0.019 0-0.030 0-2.38 1.93-4.31 4.31-4.31 0.179 0 0.355 0.011 0.528 0.032l-0.021-0.002c0.002 0 0.005 0 0.007 0 2.52 0 4.564 2.043 4.564 4.564 0 0.089-0.003 0.178-0.008 0.266l0.001-0.012c0 4.817 0 25.353 0 31.691 0 114.341 63.382 207.132 141.469 207.132s141.976-98.622 141.976-214.485c0-2.66 2.157-4.817 4.817-4.817s4.817 2.157 4.817 4.817v0c0.008 0.823 0.013 1.796 0.013 2.769 0 56.798-16.241 109.803-44.333 154.623l0.713-1.219c-21.721 38.702-61.537 64.995-107.679 67.425l-0.324 0.014z"></path>
<path fill="#3a549b" d="M221.077 515.169v0c-2.114-0.426-3.684-2.269-3.684-4.478 0-0.39 0.049-0.77 0.141-1.131l-0.007 0.032c14.958-73.523 45.382-175.949 104.454-246.429 17.323-22.811 39.515-41.025 65.103-53.287l1.067-0.461c0.476-0.173 1.026-0.273 1.599-0.273 2.029 0 3.765 1.254 4.474 3.029l0.011 0.032c0.221 0.517 0.349 1.118 0.349 1.75 0 2.010-1.3 3.717-3.105 4.326l-0.032 0.009c-25.244 12.095-46.304 29.259-62.581 50.31l-0.294 0.396c-57.551 68.96-87.214 169.357-101.411 241.612 0.005 0.079 0.008 0.171 0.008 0.264 0 2.52-2.043 4.564-4.564 4.564-0.548 0-1.074-0.097-1.561-0.274l0.032 0.010z"></path>
<path fill="#3a549b" d="M611.256 820.417c-15.402-0.001-27.887-12.486-27.887-27.888s12.486-27.888 27.888-27.888c15.402 0 27.888 12.486 27.888 27.888 0 0.089 0 0.178-0.001 0.267v-0.014c-0.143 15.293-12.574 27.635-27.887 27.635 0 0-0.001 0-0.001 0v0zM611.256 774.275c-0.075-0.001-0.164-0.002-0.254-0.002-10.221 0-18.508 8.286-18.508 18.508s8.286 18.508 18.508 18.508c10.221 0 18.507-8.285 18.508-18.506v0c0-0.001 0-0.001 0-0.002 0-10.132-8.142-18.363-18.241-18.506h-0.013z"></path>
<path fill="#3a549b" d="M515.93 637.623v0l-13.944-2.282c-2.001-0.231-3.572-1.802-3.801-3.783l-0.002-0.020-11.155-60.086c-0.085-0.33-0.134-0.709-0.134-1.1 0-2.209 1.57-4.052 3.655-4.473l0.029-0.005c0.256-0.048 0.551-0.076 0.853-0.076 2.328 0 4.271 1.652 4.72 3.848l0.005 0.031 10.902 56.79 10.648 1.775c2.329 0.366 4.089 2.358 4.089 4.762 0 0.198-0.012 0.394-0.035 0.585l0.002-0.023c-0.46 2.366-2.515 4.128-4.982 4.128-0.3 0-0.594-0.026-0.879-0.076l0.030 0.004z"></path>
<path fill="#3a549b" d="M419.082 906.616c-2.657-0.004-4.81-2.159-4.81-4.817 0-0.544 0.090-1.067 0.257-1.555l-0.010 0.034 98.115-268.74c0.645-1.788 2.327-3.042 4.303-3.042 0.003 0 0.005 0 0.008 0v0h15.465c0.046-0.002 0.1-0.003 0.154-0.003 1.596 0 2.976 0.921 3.638 2.261l0.011 0.024 53.494 84.171c0.41 0.648 0.654 1.436 0.654 2.282s-0.243 1.634-0.664 2.299l0.010-0.018c-0.719 1.434-2.134 2.426-3.789 2.535l-0.014 0.001-44.874 2.535 21.296 13.437c1.105 0.734 1.866 1.912 2.026 3.274l0.002 0.021c0.247 0.561 0.391 1.214 0.391 1.901s-0.144 1.341-0.403 1.932l0.012-0.031-141.722 159.723c-0.793 1.081-2.058 1.775-3.486 1.775-0.022 0-0.045 0-0.067-0.001h0.003zM520.493 637.877l-89.495 242.119 121.44-136.905-28.902-18.254c-1.316-0.929-2.165-2.443-2.165-4.155 0-0.415 0.050-0.818 0.144-1.203l-0.007 0.035c0.541-1.958 2.239-3.398 4.294-3.548l0.016-0.001 50.706-2.789-47.917-76.058z"></path>
<path fill="#3a549b" d="M702.78 913.969c-0.076 0.004-0.164 0.007-0.254 0.007-2.52 0-4.564-2.043-4.564-4.564 0-0.002 0-0.005 0-0.007v0-27.888c0-42.846-2.535-107.749-3.042-146.539 0.039-0.808 0.061-1.755 0.061-2.707 0-20.945-10.716-39.386-26.965-50.141l-0.223-0.139c-7.222-4.827-15.77-8.3-24.974-9.835l-0.379-0.052-44.621-11.409c-2.114-0.426-3.684-2.269-3.684-4.478 0-0.39 0.049-0.77 0.141-1.131l-0.007 0.032c0.638-2.122 2.574-3.642 4.865-3.642 0.342 0 0.676 0.034 0.998 0.098l-0.032-0.005 44.367 11.155c33.983 5.438 59.637 34.544 59.637 69.642 0 1.008-0.021 2.012-0.063 3.010l0.005-0.143c0 38.79 2.028 103.693 3.042 146.539v27.888c0.004 0.076 0.007 0.164 0.007 0.254 0 2.52-2.043 4.564-4.564 4.564-0.002 0-0.005 0-0.007 0v0z"></path>
<path fill="#3a549b" d="M460.154 790.754h-84.425c-0.002 0-0.005 0-0.007 0-2.52 0-4.564-2.043-4.564-4.564 0-0.089 0.003-0.178 0.008-0.266l-0.001 0.012c0-2.52 2.043-4.564 4.564-4.564v0h84.425c0.33-0.081 0.708-0.127 1.098-0.127 2.66 0 4.817 2.157 4.817 4.817s-2.157 4.817-4.817 4.817c-0.389 0-0.768-0.046-1.131-0.133l0.033 0.007z"></path>
<path fill="#3a549b" d="M317.924 637.623c-0.008 0-0.018 0-0.028 0-2.342 0-4.272-1.764-4.533-4.035l-0.002-0.021c-0.043-0.235-0.067-0.506-0.067-0.782 0-2.366 1.8-4.311 4.105-4.541l0.019-0.002 10.648-1.775 10.395-56.79c0.568-2.226 2.555-3.846 4.92-3.846 0.232 0 0.46 0.016 0.683 0.046l-0.026-0.003c2.227 0.454 3.879 2.396 3.879 4.725 0 0.301-0.028 0.596-0.081 0.882l0.005-0.030-11.155 60.086c-0.343 2.033-1.99 3.594-4.037 3.801l-0.019 0.002-13.944 2.282z"></path>
<path fill="#3a549b" d="M419.589 906.616c-1.392-0.020-2.645-0.599-3.549-1.52l-0.001-0.001-146.286-159.976c-0.817-0.785-1.324-1.888-1.324-3.108 0-0.245 0.021-0.486 0.060-0.72l-0.004 0.025c0.289-1.398 1.121-2.562 2.261-3.284l0.021-0.012 21.043-13.437-44.621-2.535c-0.003 0-0.005 0-0.008 0-2.52 0-4.564-2.043-4.564-4.564 0-0.945 0.287-1.823 0.779-2.551l-0.010 0.016 53.494-84.425c0.804-1.374 2.272-2.283 3.953-2.283 0.036 0 0.073 0 0.109 0.001h15.967c2.034 0.035 3.772 1.261 4.551 3.010l0.013 0.032 101.411 268.993c0.194 0.516 0.306 1.113 0.306 1.736 0 1.676-0.813 3.163-2.067 4.086l-0.014 0.010zM280.656 743.091l124.989 137.159-92.538-242.626h-8.873l-47.663 76.058 50.706 2.789c2.071 0.151 3.769 1.591 4.302 3.516l0.008 0.034c0.087 0.351 0.137 0.754 0.137 1.169 0 1.712-0.849 3.227-2.149 4.145l-0.016 0.011z"></path>
<path fill="#3a549b" d="M131.328 909.659v0c-0.002 0-0.005 0-0.007 0-2.52 0-4.564-2.043-4.564-4.564 0-0.089 0.003-0.178 0.008-0.266l-0.001 0.012v-34.733c0-41.832 2.282-98.876 2.789-135.384-0.036-0.84-0.057-1.824-0.057-2.814 0-24.2 12.42-45.499 31.234-57.871l0.261-0.161c8.699-5.55 18.974-9.483 30-11.104l0.423-0.051 23.071-5.578c0.33-0.085 0.709-0.134 1.1-0.134 2.209 0 4.052 1.57 4.473 3.655l0.005 0.029c0.088 0.345 0.139 0.741 0.139 1.148 0 2.26-1.556 4.156-3.655 4.676l-0.033 0.007-23.325 5.578c-30.405 3.396-53.83 28.956-53.83 59.987 0 1.105 0.030 2.203 0.088 3.293l-0.007-0.152c0 36.508-2.028 93.552-2.789 135.384v34.733c-0.251 2.447-2.301 4.339-4.793 4.339-0.187 0-0.372-0.011-0.553-0.031l0.022 0.002z"></path>
<path fill="#3a549b" d="M232.232 926.899v0c-2.313-0.38-4.057-2.365-4.057-4.757 0-0.021 0-0.042 0-0.064v0.003-14.705c0-0.002 0-0.005 0-0.007 0-2.52 2.043-4.564 4.564-4.564 0.089 0 0.178 0.003 0.266 0.008l-0.012-0.001c0.002 0 0.005 0 0.007 0 2.52 0 4.564 2.043 4.564 4.564 0 0.089-0.003 0.178-0.008 0.266l0.001-0.012v14.705c0 0.019 0 0.041 0 0.064 0 2.52-2.043 4.564-4.564 4.564-0.269 0-0.532-0.023-0.788-0.068l0.027 0.004z"></path>
<path fill="#3a549b" d="M231.471 978.872v0c-2.66 0-4.817-2.157-4.817-4.817v0-27.381c0-2.52 2.043-4.564 4.564-4.564v0c0.078-0.005 0.169-0.007 0.261-0.007 2.52 0 4.564 2.043 4.564 4.564 0 0.092-0.003 0.183-0.008 0.273l0.001-0.012v27.128c0 0.002 0 0.004 0 0.007 0 2.571-2.014 4.672-4.551 4.81l-0.012 0.001z"></path>
<path fill="#3a549b" d="M608.467 926.899v0c-0.002 0-0.005 0-0.007 0-2.52 0-4.564-2.043-4.564-4.564 0-0.089 0.003-0.178 0.008-0.266l-0.001 0.012v-78.594c0-0.002 0-0.005 0-0.007 0-2.52 2.043-4.564 4.564-4.564 0.089 0 0.178 0.003 0.266 0.008l-0.012-0.001c2.52 0 4.564 2.043 4.564 4.564v0 78.594c0.005 0.078 0.007 0.169 0.007 0.261 0 2.52-2.043 4.564-4.564 4.564-0.092 0-0.183-0.003-0.273-0.008l0.012 0.001z"></path>
<path fill="#3a549b" d="M608.467 977.097v0c-0.002 0-0.005 0-0.007 0-2.52 0-4.564-2.043-4.564-4.564 0-0.089 0.003-0.178 0.008-0.266l-0.001 0.012v-22.818c0-0.002 0-0.005 0-0.007 0-2.52 2.043-4.564 4.564-4.564 0.089 0 0.178 0.003 0.266 0.008l-0.012-0.001c0.002 0 0.005 0 0.007 0 2.52 0 4.564 2.043 4.564 4.564 0 0.089-0.003 0.178-0.008 0.266l0.001-0.012v22.564c0 2.66-2.157 4.817-4.817 4.817v0z"></path>
<path fill="#3a549b" d="M204.851 744.612c-0.031 0.001-0.068 0.001-0.105 0.001-1.88 0-3.494-1.137-4.193-2.76l-0.011-0.030c-4.162-9.416-6.586-20.397-6.592-31.943v-0.002c0.144-45.117 36.752-81.636 81.889-81.636 0 0 0 0 0 0h25.353c0.33-0.081 0.708-0.127 1.098-0.127 2.66 0 4.817 2.157 4.817 4.817s-2.157 4.817-4.817 4.817c-0.389 0-0.768-0.046-1.131-0.133l0.033 0.007h-25.353c-0.151-0.001-0.329-0.002-0.507-0.002-39.957 0-72.366 32.32-72.509 72.244v0.014c-0.002 0.195-0.003 0.425-0.003 0.655 0 9.928 2.053 19.376 5.756 27.943l-0.176-0.457c0.249 0.562 0.393 1.217 0.393 1.907 0 1.978-1.192 3.678-2.898 4.419l-0.031 0.012z"></path>
<path fill="#3a549b" d="M418.828 1020.958c-0.002 0-0.005 0-0.007 0-2.52 0-4.564-2.043-4.564-4.564 0-0.089 0.003-0.178 0.008-0.266l-0.001 0.012v-68.199c0-2.52 2.043-4.564 4.564-4.564v0c0.076-0.004 0.164-0.007 0.254-0.007 2.52 0 4.564 2.043 4.564 4.564 0 0.002 0 0.005 0 0.007v0 68.199c0.005 0.078 0.007 0.169 0.007 0.261 0 2.52-2.043 4.564-4.564 4.564-0.092 0-0.183-0.003-0.273-0.008l0.012 0.001z"></path>
<path fill="#3a549b" d="M418.828 951.744c-0.038 0-0.082 0-0.127 0-4.386 0-8.366-1.74-11.286-4.568l-52.476-52.476c-1.045-0.889-1.704-2.206-1.704-3.676s0.659-2.787 1.697-3.67l0.007-0.006c0.84-0.949 2.062-1.545 3.423-1.545s2.582 0.596 3.418 1.54l0.004 0.005 52.227 52.227c1.206 1.289 2.918 2.092 4.817 2.092s3.611-0.803 4.814-2.088l0.003-0.004 52.734-52.227c0.876-0.876 2.086-1.418 3.423-1.418 2.673 0 4.84 2.167 4.84 4.84 0 1.337-0.542 2.547-1.418 3.423v0l-52.227 52.987c-3.027 2.833-7.108 4.573-11.595 4.573-0.202 0-0.403-0.004-0.603-0.011l0.029 0.001z"></path>
<path fill="#3a549b" d="M612.777 442.914c-0.047 0.002-0.103 0.004-0.159 0.004-1.459 0-2.697-0.948-3.131-2.262l-0.007-0.023c-15.623-51.762-41.809-96.301-76.228-133.031l0.17 0.183c-0.584-0.631-0.942-1.478-0.942-2.409s0.358-1.778 0.944-2.411l-0.002 0.002c0.645-0.658 1.542-1.065 2.535-1.065s1.891 0.408 2.535 1.065l0.001 0.001c34.458 37.278 60.684 82.693 75.46 133.007l0.598 2.377c0.082 0.284 0.129 0.611 0.129 0.948 0 1.553-0.997 2.873-2.386 3.354l-0.025 0.008z"></path>
<path fill="#3a549b" d="M517.451 289.783c-0.335 0.154-0.728 0.244-1.141 0.244s-0.806-0.090-1.158-0.251l0.017 0.007c-19.102-17.799-39.682-34.841-61.228-50.643l-1.901-1.33c-83.411-61.1-82.65-97.101-82.65-98.622 0.246-1.799 1.72-3.186 3.539-3.295l0.011-0.001c0.003 0 0.006 0 0.010 0 1.82 0 3.296 1.476 3.296 3.296 0 0.089-0.004 0.178-0.011 0.265l0.001-0.012s0 34.733 79.861 93.045c23.704 16.813 44.458 33.704 64.043 51.839l-0.407-0.373c0.644 0.603 1.046 1.459 1.046 2.409s-0.402 1.805-1.044 2.407l-0.002 0.002c-0.579 0.603-1.383 0.987-2.277 1.014h-0.005z"></path>
<path fill="#3a549b" d="M610.496 399.307c-1.556-0.048-2.856-1.090-3.289-2.51l-0.007-0.025c-22.564-72.509-59.833-120.679-137.412-177.47-16.239-11.931-30.564-24.407-43.793-37.96l-0.067-0.069c-0.584-0.631-0.942-1.478-0.942-2.409s0.358-1.778 0.944-2.411l-0.002 0.002c0.566-0.352 1.253-0.561 1.988-0.561 1.264 0 2.383 0.616 3.075 1.564l0.008 0.011c12.934 13.477 26.938 25.712 41.949 36.646l0.897 0.623c78.847 57.804 116.623 106.989 139.948 181.019 0.124 0.332 0.195 0.717 0.195 1.117 0 1.529-1.042 2.815-2.454 3.187l-0.023 0.005z"></path>
<path fill="#3a549b" d="M412.237 162.512c-0.003 0-0.007 0-0.012 0-1.161 0-2.182-0.601-2.769-1.508l-0.008-0.013c-6.577-7.68-10.915-17.453-11.901-28.196l-0.015-0.199c0.426-1.516 1.797-2.609 3.423-2.609s2.996 1.093 3.417 2.584l0.006 0.025c1.101 9.736 4.939 18.414 10.715 25.437l-0.067-0.084c0.584 0.631 0.942 1.478 0.942 2.409s-0.358 1.778-0.944 2.411l0.002-0.002c-0.34 0.143-0.735 0.226-1.15 0.226-0.609 0-1.175-0.179-1.651-0.486l0.012 0.007z"></path>
<path fill="#3a549b" d="M603.904 350.376c-0.047 0.002-0.103 0.004-0.159 0.004-1.459 0-2.697-0.948-3.131-2.262l-0.007-0.023c-18.761-59.072-50.706-98.115-113.327-144.511-20.778-13.777-38.273-30.625-52.33-50.118l-0.403-0.588c-4.103-5.494-6.774-12.275-7.344-19.645l-0.008-0.13c-0.030-0.167-0.047-0.358-0.047-0.554 0-1.82 1.476-3.296 3.296-3.296 0.196 0 0.387 0.017 0.574 0.050l-0.020-0.003c0.003 0 0.006 0 0.010 0 1.82 0 3.296 1.476 3.296 3.296 0 0.089-0.004 0.178-0.011 0.265l0.001-0.012s0 25.353 57.044 65.157c66.424 47.41 96.594 87.467 117.13 148.060 0.082 0.284 0.129 0.611 0.129 0.948 0 1.553-0.997 2.873-2.386 3.354l-0.025 0.008z"></path>
<path fill="#3a549b" d="M598.833 310.065c-1.556-0.048-2.856-1.090-3.289-2.51l-0.007-0.025c-11.118-36.22-31.569-66.832-58.566-90.043l-0.253-0.213c-0.695-0.627-1.129-1.53-1.129-2.535 0-1.884 1.527-3.411 3.411-3.411 0.879 0 1.68 0.332 2.285 0.878l-0.003-0.003c28.179 24.214 49.333 55.856 60.473 91.895l0.373 1.403c0.082 0.284 0.129 0.611 0.129 0.948 0 1.553-0.997 2.873-2.386 3.354l-0.025 0.008z"></path>
<path fill="#3a549b" d="M507.056 192.428c-0.301 0.121-0.649 0.191-1.014 0.191s-0.713-0.070-1.033-0.198l0.019 0.007c-48.677-35.747-48.677-56.283-48.677-58.565 0.246-1.799 1.72-3.186 3.539-3.295l0.011-0.001c0.003 0 0.006 0 0.010 0 1.82 0 3.296 1.476 3.296 3.296 0 0.089-0.004 0.178-0.011 0.265l0.001-0.012s0 19.522 45.889 51.973c0.584 0.631 0.942 1.478 0.942 2.409s-0.358 1.778-0.944 2.411l0.002-0.002c-0.465 0.73-1.171 1.271-2.003 1.515l-0.025 0.006z"></path>
<path fill="#3a549b" d="M591.735 265.951c-1.556-0.048-2.856-1.090-3.289-2.51l-0.007-0.025c-11.756-33.964-34.536-61.588-63.98-79.236l-0.67-0.372c-0.644-0.603-1.046-1.459-1.046-2.409s0.402-1.805 1.044-2.407l0.002-0.002c0.67-0.601 1.56-0.968 2.535-0.968s1.866 0.367 2.539 0.972l-0.004-0.003c31.317 18.955 55.038 47.765 67.104 82.065l0.335 1.092c0.089 0.306 0.139 0.657 0.139 1.020 0 1.603-0.992 2.975-2.396 3.534l-0.026 0.009z"></path>
<path fill="#3a549b" d="M525.817 184.568c-0.301 0.121-0.649 0.191-1.014 0.191s-0.713-0.070-1.033-0.198l0.019 0.007c-7.58-5.138-14.207-10.557-20.313-16.509l0.031 0.030c-0.729-0.609-1.19-1.518-1.19-2.535s0.461-1.926 1.185-2.531l0.005-0.004c0.631-0.584 1.478-0.942 2.409-0.942s1.778 0.358 2.411 0.944l-0.002-0.002c5.856 5.591 12.231 10.758 19.005 15.386l0.516 0.333c0.658 0.645 1.065 1.542 1.065 2.535s-0.408 1.891-1.065 2.535l-0.001 0.001c-0.547 0.457-1.253 0.741-2.024 0.761h-0.004z"></path>
<path fill="#3a549b" d="M223.358 481.703v0c-1.63-0.343-2.836-1.769-2.836-3.477 0-0.205 0.017-0.405 0.051-0.6l-0.003 0.021c10.536-67.115 30.561-127.49 58.884-182.918l-1.587 3.42c0.591-0.568 1.396-0.918 2.282-0.918s1.691 0.35 2.283 0.919l-0.001-0.001c1.142 0.534 1.919 1.674 1.919 2.994 0 0.575-0.147 1.116-0.406 1.586l0.009-0.017c-26.428 51.425-46.192 111.125-56.1 174.098l-0.437 3.371c-0.637 1.013-1.749 1.677-3.016 1.677-0.371 0-0.73-0.057-1.066-0.163l0.025 0.007z"></path>
<path fill="#3a549b" d="M294.093 278.881c-0.259 0.129-0.564 0.204-0.887 0.204s-0.628-0.075-0.899-0.21l0.012 0.005c-0.568-0.591-0.918-1.396-0.918-2.282s0.35-1.691 0.919-2.283l-0.001 0.001c18.288-33.619 44.048-61.084 75.173-80.857l0.885-0.525c0.475-0.322 1.062-0.514 1.693-0.514 1.319 0 2.443 0.84 2.864 2.014l0.007 0.021c0.25 0.454 0.398 0.994 0.398 1.569 0 1.321-0.777 2.46-1.898 2.986l-0.020 0.009c-31.228 20.104-56.428 47.008-73.968 78.738l-0.57 1.124c-0.409 0.195-0.888 0.31-1.394 0.31s-0.986-0.114-1.414-0.318l0.020 0.009z"></path>
<path fill="#3a549b" d="M229.696 418.321h-1.521c-1.535-0.414-2.645-1.793-2.645-3.432 0-0.312 0.040-0.614 0.116-0.902l-0.006 0.025c12.024-72.479 38.758-137.055 77.114-193.045l-1.055 1.631c0.614-0.523 1.417-0.841 2.294-0.841 1.96 0 3.549 1.589 3.549 3.549 0 0.486-0.098 0.95-0.275 1.372l0.009-0.023c-37.12 53.602-63.826 117.294-75.659 186.073l-0.399 2.805c-0.042 1.154-0.629 2.163-1.51 2.781l-0.011 0.008z"></path>
<path fill="#3a549b" d="M326.798 202.822c-0.38 0.114-0.816 0.18-1.268 0.18s-0.888-0.066-1.3-0.188l0.032 0.008c-0.658-0.645-1.065-1.542-1.065-2.535s0.408-1.891 1.065-2.535l0.001-0.001c8.62-8.378 18.79-15.216 30.031-20.036l0.646-0.246c0.352-0.139 0.759-0.22 1.185-0.22 1.446 0 2.674 0.931 3.118 2.225l0.007 0.023c0.218 0.409 0.347 0.895 0.347 1.41 0 1.351-0.881 2.497-2.1 2.894l-0.022 0.006c-10.806 4.835-20.042 11.231-27.894 19.021l0.006-0.006c-0.413 0.168-0.892 0.265-1.394 0.265s-0.981-0.097-1.42-0.274l0.026 0.009z"></path>
<path fill="#3a549b" d="M235.021 354.939v0c-1.634-0.212-2.884-1.595-2.884-3.27 0-0.279 0.035-0.55 0.1-0.809l-0.005 0.023c10.72-61.108 35.084-115.177 69.874-160.881l-0.66 0.905c11.233-15.149 25.803-27.2 42.667-35.201l0.686-0.293c0.352-0.139 0.759-0.22 1.185-0.22 1.446 0 2.674 0.931 3.118 2.225l0.007 0.023c0.146 0.373 0.23 0.805 0.23 1.257 0 1.496-0.925 2.775-2.234 3.298l-0.024 0.008c-16.635 7.926-30.492 19.266-41.128 33.196l-0.197 0.269c-33.81 43.585-57.584 96.603-66.922 154.454l-0.263 1.973c-0.352 1.691-1.791 2.958-3.541 3.042h-0.009z"></path>
<path fill="#3a549b" d="M246.683 486.52v0c-0.071 0.005-0.154 0.008-0.237 0.008-1.96 0-3.549-1.589-3.549-3.549 0-0.459 0.087-0.897 0.245-1.3l-0.008 0.024 3.549-37.015c0.252-1.736 1.729-3.054 3.515-3.054 0.101 0 0.202 0.004 0.301 0.013l-0.013-0.001c1.726 0.115 3.083 1.544 3.083 3.289 0 0.181-0.015 0.359-0.043 0.533l0.003-0.019-3.549 36.762c0.053 0.23 0.083 0.494 0.083 0.765 0 1.9-1.494 3.452-3.371 3.545h-0.008z"></path>
<path fill="#3a549b" d="M230.711 649.285v0c-1.493-0.536-2.541-1.939-2.541-3.588 0-0.076 0.002-0.151 0.007-0.226v0.010l13.437-136.652c0.54-1.025 1.577-1.723 2.782-1.774h0.007c1.713 0.13 3.053 1.552 3.053 3.287 0 0.092-0.004 0.184-0.011 0.274l0.001-0.012-13.437 136.905c-0.483 1.079-1.548 1.818-2.785 1.818-0.18 0-0.357-0.016-0.529-0.046l0.018 0.003z"></path>
<path fill="#3a549b" d="M260.12 555.227v0c-1.726-0.115-3.083-1.544-3.083-3.289 0-0.181 0.015-0.359 0.043-0.533l-0.003 0.019 7.352-74.030c-0.001-0.029-0.002-0.063-0.002-0.097 0-1.68 1.362-3.042 3.042-3.042 0.271 0 0.533 0.035 0.783 0.102l-0.021-0.005c1.713 0.13 3.053 1.552 3.053 3.287 0 0.092-0.004 0.184-0.011 0.274l0.001-0.012-7.352 74.284c-0.252 1.736-1.729 3.054-3.515 3.054-0.101 0-0.202-0.004-0.301-0.013l0.013 0.001z"></path>
<path fill="#3a549b" d="M251.753 638.891v0c-1.736-0.252-3.054-1.729-3.054-3.515 0-0.101 0.004-0.202 0.013-0.301l-0.001 0.013 6.338-64.903c0.252-1.736 1.729-3.054 3.515-3.054 0.101 0 0.202 0.004 0.301 0.013l-0.013-0.001c1.726 0.115 3.083 1.544 3.083 3.289 0 0.181-0.015 0.359-0.043 0.533l0.003-0.019-6.338 64.65c-0.259 1.871-1.847 3.296-3.769 3.296-0.012 0-0.024 0-0.036 0h0.002z"></path>
<path fill="#3a549b" d="M273.81 633.82v0c-1.871-0.259-3.296-1.847-3.296-3.769 0-0.012 0-0.024 0-0.036v0.002l14.198-142.736c0.131-1.852 1.667-3.306 3.541-3.306 0.092 0 0.184 0.004 0.274 0.010l-0.012-0.001c1.736 0.252 3.054 1.729 3.054 3.515 0 0.101-0.004 0.202-0.013 0.301l0.001-0.013-13.944 142.736c-0.259 1.871-1.847 3.296-3.769 3.296-0.012 0-0.024 0-0.036 0h0.002z"></path>
<path fill="#3a549b" d="M295.107 600.608v0c-1.736-0.252-3.054-1.729-3.054-3.515 0-0.101 0.004-0.202 0.013-0.301l-0.001 0.013 8.366-74.284c0.366-1.749 1.895-3.043 3.726-3.043 0.027 0 0.054 0 0.081 0.001h-0.004c1.726 0.115 3.083 1.544 3.083 3.289 0 0.181-0.015 0.359-0.043 0.533l0.003-0.019-8.366 74.284c-0.252 1.736-1.729 3.054-3.515 3.054-0.101 0-0.202-0.004-0.301-0.013l0.013 0.001z"></path>
<path fill="#3a549b" d="M291.050 633.82v0c-1.726-0.115-3.083-1.544-3.083-3.289 0-0.181 0.015-0.359 0.043-0.533l-0.003 0.019 1.521-14.958c0.252-1.736 1.729-3.054 3.515-3.054 0.101 0 0.202 0.004 0.301 0.013l-0.013-0.001c1.726 0.115 3.083 1.544 3.083 3.289 0 0.181-0.015 0.359-0.043 0.533l0.003-0.019-1.521 14.958c-0.252 1.736-1.729 3.054-3.515 3.054-0.101 0-0.202-0.004-0.301-0.013l0.013 0.001z"></path>
<path fill="#3a549b" d="M310.572 633.82v0c-1.749-0.366-3.043-1.895-3.043-3.726 0-0.027 0-0.054 0.001-0.081v0.004l10.902-83.664c0.252-1.736 1.729-3.054 3.515-3.054 0.101 0 0.202 0.004 0.301 0.013l-0.013-0.001c1.726 0.115 3.083 1.544 3.083 3.289 0 0.181-0.015 0.359-0.043 0.533l0.003-0.019-10.902 83.664c0.001 0.029 0.002 0.063 0.002 0.097 0 1.68-1.362 3.042-3.042 3.042-0.271 0-0.533-0.035-0.783-0.102l0.021 0.005z"></path>
<path fill="#3a549b" d="M586.157 495.394c-0.003 0-0.006 0-0.010 0-1.731 0-3.15-1.334-3.285-3.031l-0.001-0.012-6.845-48.677c-0.060-0.236-0.095-0.507-0.095-0.786 0-1.675 1.25-3.058 2.867-3.268l0.017-0.002c0.154-0.026 0.333-0.040 0.514-0.040 1.745 0 3.174 1.356 3.288 3.073l0.001 0.010 7.099 48.677c0.009 0.098 0.014 0.212 0.014 0.328 0 1.836-1.301 3.368-3.032 3.725l-0.025 0.004z"></path>
<path fill="#3a549b" d="M609.735 661.455c-0.087 0.008-0.188 0.013-0.291 0.013-1.646 0-3.010-1.206-3.256-2.783l-0.002-0.019-20.029-142.99c-0.030-0.174-0.048-0.375-0.048-0.579 0-1.708 1.206-3.134 2.813-3.473l0.023-0.004c0.162-0.026 0.348-0.041 0.538-0.041 1.796 0 3.28 1.334 3.517 3.065l0.002 0.018 20.029 142.99c0.028 0.162 0.044 0.349 0.044 0.54 0 1.657-1.223 3.029-2.815 3.261l-0.018 0.002z"></path>
<path fill="#3a549b" d="M579.058 599.087c-1.69-0.107-3.053-1.383-3.294-3.023l-0.002-0.019-14.705-118.398c0-0.023-0.001-0.050-0.001-0.077 0-1.831 1.294-3.36 3.018-3.722l0.025-0.004c0.154-0.026 0.333-0.040 0.514-0.040 1.745 0 3.174 1.356 3.288 3.073l0.001 0.010 15.212 118.398c0.007 0.086 0.012 0.187 0.012 0.288 0 1.786-1.318 3.263-3.035 3.512l-0.019 0.002z"></path>
<path fill="#3a549b" d="M585.396 650.046c-0.011 0-0.024 0-0.036 0-1.781 0-3.256-1.312-3.511-3.023l-0.002-0.019-3.042-25.353c0.426-1.516 1.797-2.609 3.423-2.609s2.996 1.093 3.417 2.584l0.006 0.025 3.042 25.353c0.028 0.162 0.044 0.349 0.044 0.54 0 1.657-1.223 3.029-2.815 3.261l-0.018 0.002z"></path>
<path fill="#3a549b" d="M562.072 638.891c-0.076 0.007-0.164 0.011-0.254 0.011-1.68 0-3.042-1.362-3.042-3.042 0-0.004 0-0.007 0-0.011v0.001l-16.986-148.060c-0.007-0.086-0.012-0.187-0.012-0.288 0-1.786 1.318-3.263 3.035-3.512l0.019-0.002c0.086-0.007 0.187-0.012 0.288-0.012 1.786 0 3.263 1.318 3.512 3.035l0.002 0.019 16.986 148.060c0.007 0.086 0.012 0.187 0.012 0.288 0 1.786-1.318 3.263-3.035 3.512l-0.019 0.002z"></path>
<path fill="#3a549b" d="M532.409 552.438c-0.011 0-0.024 0-0.036 0-1.781 0-3.256-1.312-3.511-3.023l-0.002-0.019-3.296-29.409c-0.026-0.154-0.040-0.333-0.040-0.514 0-1.745 1.356-3.174 3.073-3.288l0.010-0.001c0.154-0.026 0.333-0.040 0.514-0.040 1.745 0 3.174 1.356 3.288 3.073l0.001 0.010 3.296 29.409c0.026 0.154 0.040 0.333 0.040 0.514 0 1.745-1.356 3.174-3.073 3.288l-0.010 0.001z"></path>
<path fill="#3a549b" d="M542.55 633.82c-0.011 0-0.024 0-0.036 0-1.781 0-3.256-1.312-3.511-3.023l-0.002-0.019-6.592-58.311c-0.026-0.154-0.040-0.333-0.040-0.514 0-1.745 1.356-3.174 3.073-3.288l0.010-0.001c0.154-0.026 0.333-0.040 0.514-0.040 1.745 0 3.174 1.356 3.288 3.073l0.001 0.010 6.845 59.326c0.026 0.154 0.040 0.333 0.040 0.514 0 1.745-1.356 3.174-3.073 3.288l-0.010 0.001z"></path>
<path fill="#3a549b" d="M522.521 633.82c-0.003 0-0.006 0-0.010 0-1.731 0-3.15-1.334-3.285-3.031l-0.001-0.012-10.902-83.664c-0.026-0.154-0.040-0.333-0.040-0.514 0-1.745 1.356-3.174 3.073-3.288l0.010-0.001c0.086-0.007 0.187-0.012 0.288-0.012 1.786 0 3.263 1.318 3.512 3.035l0.002 0.019 10.902 83.664c0.007 0.086 0.012 0.187 0.012 0.288 0 1.786-1.318 3.263-3.035 3.512l-0.019 0.002z"></path>
<path fill="#3a549b" d="M359.756 644.468v0c-11.325-1.909-21.467-5.629-30.615-10.884l0.445 0.236c-0.601-0.67-0.968-1.56-0.968-2.535s0.367-1.866 0.972-2.539l-0.003 0.004c0.631-0.584 1.478-0.942 2.409-0.942s1.778 0.358 2.411 0.944l-0.002-0.002c7.659 4.629 16.599 8.077 26.137 9.814l0.484 0.073c1.63 0.343 2.836 1.769 2.836 3.477 0 0.205-0.017 0.405-0.051 0.6l0.003-0.021c-0.529 1.157-1.676 1.946-3.007 1.946-0.376 0-0.736-0.063-1.073-0.179l0.023 0.007z"></path>
<path fill="#3a549b" d="M353.418 628.75v0c-7.865-2.372-14.67-5.301-21.056-8.888l0.52 0.269c-0.554-0.688-0.89-1.572-0.89-2.535s0.335-1.847 0.896-2.543l-0.006 0.008c0.688-0.554 1.572-0.89 2.535-0.89s1.847 0.335 2.543 0.896l-0.008-0.006c5.252 3.247 11.318 5.932 17.751 7.739l0.503 0.121c1.535 0.414 2.645 1.793 2.645 3.432 0 0.312-0.040 0.614-0.116 0.902l0.006-0.025c-0.552 1.288-1.808 2.174-3.272 2.174-0.769 0-1.481-0.245-2.063-0.66l0.011 0.007z"></path>
<path fill="#3a549b" d="M349.108 613.031v0c-5.126-1.751-9.569-3.982-13.642-6.722l0.205 0.13c-1.318-0.538-2.229-1.81-2.229-3.295 0-1.96 1.589-3.549 3.549-3.549 0.967 0 1.843 0.387 2.484 1.014l-0.001-0.001c3.402 2.008 7.408 3.966 11.568 5.62l0.601 0.211c1.368 0.422 2.344 1.675 2.344 3.155 0 0.512-0.117 0.996-0.324 1.428l0.009-0.020c-0.531 1.333-1.811 2.258-3.306 2.258-0.452 0-0.884-0.084-1.281-0.238l0.024 0.008z"></path>
<path fill="#3a549b" d="M473.844 644.468c-1.516-0.426-2.609-1.797-2.609-3.423s1.093-2.996 2.584-3.417l0.025-0.006c9.571-1.979 18.061-5.406 25.701-10.086l-0.348 0.198c0.67-0.601 1.56-0.968 2.535-0.968s1.866 0.367 2.539 0.972l-0.004-0.003c0.554 0.688 0.89 1.572 0.89 2.535s-0.335 1.847-0.896 2.543l0.006-0.008c-8.331 4.882-18.023 8.584-28.329 10.557l-0.573 0.091z"></path>
<path fill="#3a549b" d="M479.929 628.75c-1.516-0.426-2.609-1.797-2.609-3.423s1.093-2.996 2.584-3.417l0.025-0.006c7.027-1.895 13.182-4.583 18.818-8.036l-0.31 0.177c0.57-0.385 1.272-0.614 2.028-0.614 2.019 0 3.656 1.637 3.656 3.656 0 1.263-0.641 2.377-1.615 3.034l-0.013 0.008c-5.836 3.239-12.635 6.164-19.738 8.403l-0.797 0.217z"></path>
<path fill="#3a549b" d="M484.492 613.031c-1.497-0.008-2.773-0.942-3.288-2.258l-0.008-0.024c-0.199-0.412-0.316-0.897-0.316-1.408 0-1.481 0.977-2.734 2.321-3.149l0.023-0.006c4.872-1.993 8.873-3.948 12.734-6.124l-0.565 0.293c0.631-0.584 1.478-0.942 2.409-0.942s1.778 0.358 2.411 0.944l-0.002-0.002c0.644 0.603 1.046 1.459 1.046 2.409s-0.402 1.805-1.044 2.407l-0.002 0.002c-3.868 2.61-8.311 4.84-13.034 6.471l-0.403 0.121z"></path>
<path fill="#3a549b" d="M520.24 667.286h-11.409c-0.076 0.006-0.164 0.010-0.254 0.010-1.82 0-3.296-1.476-3.296-3.296 0-0.003 0-0.007 0-0.010v0.001c0-1.96 1.589-3.549 3.549-3.549v0h11.409c1.96 0 3.549 1.589 3.549 3.549v0c0 0.003 0 0.006 0 0.010 0 1.82-1.476 3.296-3.296 3.296-0.089 0-0.178-0.004-0.265-0.011l0.012 0.001z"></path>
<path fill="#3a549b" d="M524.803 686.047h-23.325c-0.003 0-0.006 0-0.010 0-1.82 0-3.296-1.476-3.296-3.296 0-0.089 0.004-0.178 0.011-0.265l-0.001 0.012c0-1.82 1.476-3.296 3.296-3.296v0h23.325c1.82 0 3.296 1.476 3.296 3.296v0c0.006 0.076 0.010 0.164 0.010 0.254 0 1.82-1.476 3.296-3.296 3.296-0.003 0-0.007 0-0.010 0h0.001z"></path>
<path fill="#3a549b" d="M532.409 703.287h-39.043c-1.96 0-3.549-1.589-3.549-3.549v0c0-0.003 0-0.006 0-0.010 0-1.82 1.476-3.296 3.296-3.296 0.089 0 0.178 0.004 0.265 0.011l-0.012-0.001h39.043c0.076-0.006 0.164-0.010 0.254-0.010 1.82 0 3.296 1.476 3.296 3.296 0 0.003 0 0.007 0 0.010v-0.001c0 1.96-1.589 3.549-3.549 3.549v0z"></path>
<path fill="#3a549b" d="M503.76 721.541h-15.972c-1.96 0-3.549-1.589-3.549-3.549v0c0-0.003 0-0.006 0-0.010 0-1.82 1.476-3.296 3.296-3.296 0.089 0 0.178 0.004 0.265 0.011l-0.012-0.001h15.972c1.82 0 3.296 1.476 3.296 3.296v0c0.006 0.076 0.010 0.164 0.010 0.254 0 1.82-1.476 3.296-3.296 3.296-0.003 0-0.007 0-0.010 0h0.001z"></path>
<path fill="#3a549b" d="M492.098 739.034h-10.395c-1.82 0-3.296-1.476-3.296-3.296v0c-0.006-0.076-0.010-0.164-0.010-0.254 0-1.82 1.476-3.296 3.296-3.296 0.003 0 0.007 0 0.010 0h10.394c0.003 0 0.006 0 0.010 0 1.82 0 3.296 1.476 3.296 3.296 0 0.089-0.004 0.178-0.011 0.265l0.001-0.012c0 1.82-1.476 3.296-3.296 3.296v0z"></path>
<path fill="#3a549b" d="M327.305 667.286h-11.662c-0.076 0.006-0.164 0.010-0.254 0.010-1.82 0-3.296-1.476-3.296-3.296 0-0.003 0-0.007 0-0.010v0.001c0-1.96 1.589-3.549 3.549-3.549v0h11.662c0.003 0 0.006 0 0.010 0 1.82 0 3.296 1.476 3.296 3.296 0 0.089-0.004 0.178-0.011 0.265l0.001-0.012c0 1.82-1.476 3.296-3.296 3.296v0z"></path>
<path fill="#3a549b" d="M334.404 686.047h-23.071c-1.96 0-3.549-1.589-3.549-3.549v0c0-0.003 0-0.006 0-0.010 0-1.82 1.476-3.296 3.296-3.296 0.089 0 0.178 0.004 0.265 0.011l-0.012-0.001h23.071c0.076-0.006 0.164-0.010 0.254-0.010 1.82 0 3.296 1.476 3.296 3.296 0 0.003 0 0.007 0 0.010v-0.001c0 1.96-1.589 3.549-3.549 3.549v0z"></path>
<path fill="#3a549b" d="M342.77 703.287h-38.536c-1.96 0-3.549-1.589-3.549-3.549v0c0.136-1.848 1.669-3.296 3.54-3.296 0.003 0 0.006 0 0.010 0v0h39.55c1.82 0 3.296 1.476 3.296 3.296v0c0.017 0.127 0.027 0.273 0.027 0.422 0 1.82-1.476 3.296-3.296 3.296-0.372 0-0.731-0.062-1.064-0.176l0.023 0.007z"></path>
<path fill="#3a549b" d="M348.348 721.541h-16.226c-0.003 0-0.006 0-0.010 0-1.82 0-3.296-1.476-3.296-3.296 0-0.089 0.004-0.178 0.011-0.265l-0.001 0.012c0-1.82 1.476-3.296 3.296-3.296v0h16.226c1.82 0 3.296 1.476 3.296 3.296v0c0.006 0.076 0.010 0.164 0.010 0.254 0 1.82-1.476 3.296-3.296 3.296-0.003 0-0.007 0-0.010 0h0.001z"></path>
<path fill="#3a549b" d="M354.939 739.034h-10.395c-1.82 0-3.296-1.476-3.296-3.296v0c-0.006-0.076-0.010-0.164-0.010-0.254 0-1.82 1.476-3.296 3.296-3.296 0.003 0 0.007 0 0.010 0h10.394c1.96 0 3.549 1.589 3.549 3.549v0c0 0.003 0 0.006 0 0.010 0 1.82-1.476 3.296-3.296 3.296-0.089 0-0.178-0.004-0.265-0.011l0.012 0.001z"></path>
<path fill="#3a549b" d="M336.939 470.548c-0.226 0.003-0.493 0.004-0.761 0.004-38.365 0-69.467-31.101-69.467-69.467s31.101-69.467 69.467-69.467c38.364 0 69.464 31.099 69.467 69.462v0c0 0.001 0 0.003 0 0.004 0 38.098-30.669 69.033-68.666 69.462h-0.041zM336.939 340.235c-0.075 0-0.164-0.001-0.254-0.001-33.605 0-60.847 27.242-60.847 60.847s27.242 60.847 60.847 60.847c33.605 0 60.846-27.242 60.847-60.846v0c0 0 0 0 0-0.001 0-33.516-27.098-60.702-60.579-60.846h-0.014z"></path>
<path fill="#3a549b" d="M497.169 470.548c-0.075 0-0.164 0-0.254 0-38.365 0-69.467-31.101-69.467-69.467s31.101-69.467 69.467-69.467c38.365 0 69.466 31.101 69.467 69.466v0c0 0 0 0 0 0 0 38.276-30.957 69.322-69.199 69.466h-0.014zM497.169 340.235c-0.075 0-0.164-0.001-0.254-0.001-33.605 0-60.847 27.242-60.847 60.847s27.242 60.847 60.847 60.847c33.605 0 60.846-27.242 60.847-60.846v0c-0.142-33.459-27.155-60.561-60.566-60.847h-0.027z"></path>
<path fill="#3a549b" d="M401.842 405.645c-0.023 0.001-0.051 0.001-0.078 0.001-1.348 0-2.533-0.702-3.208-1.76l-0.009-0.015c-0.763-0.738-1.236-1.772-1.236-2.916s0.473-2.177 1.235-2.915l0.001-0.001c4.859-3.758 11.039-6.023 17.747-6.023s12.888 2.266 17.814 6.074l-0.067-0.050c0.938 0.797 1.529 1.977 1.529 3.296 0 2.384-1.933 4.317-4.317 4.317-1.066 0-2.042-0.386-2.795-1.027l0.006 0.005c-3.483-2.651-7.893-4.247-12.676-4.247s-9.194 1.596-12.728 4.284l0.052-0.038c-0.351 0.41-0.772 0.749-1.245 1.003l-0.023 0.011z"></path>
<path fill="#3a549b" d="M397.025 532.409c5.87 2.572 12.711 4.069 19.902 4.069s14.032-1.497 20.229-4.196l-0.327 0.127c0 12.676-16.986 13.944-19.268 13.944s-19.522-1.521-20.536-13.944z"></path>
<path fill="#3a549b" d="M444.181 519.986c-4.87-2.891-10.736-4.6-17.002-4.6-2.967 0-5.845 0.383-8.586 1.103l0.235-0.052c-0.646 0.179-1.389 0.282-2.155 0.282s-1.509-0.103-2.214-0.296l0.059 0.014c-2.358-0.567-5.065-0.891-7.847-0.891-6.446 0-12.484 1.743-17.67 4.784l0.165-0.089c-2.701 0.721-5.802 1.135-9 1.135s-6.299-0.414-9.253-1.191l0.253 0.057c3.296 9.381 22.057 7.859 26.62 6.085 2.42-0.845 5.209-1.333 8.113-1.333s5.693 0.488 8.291 1.387l-0.178-0.054c0.723 0.18 1.554 0.283 2.409 0.283s1.685-0.103 2.48-0.298l-0.071 0.015c2.42-0.845 5.209-1.333 8.113-1.333s5.693 0.488 8.291 1.387l-0.178-0.054c4.564 1.775 23.325 3.296 26.874-6.085-2.511 0.603-5.393 0.949-8.356 0.949-3.338 0-6.573-0.439-9.651-1.262l0.26 0.059z"></path>
<path fill="#3a549b" d="M422.378 481.703c-0.039 0.002-0.084 0.004-0.129 0.004-0.989 0-1.831-0.629-2.148-1.509l-0.005-0.016c-0.106-0.269-0.167-0.58-0.167-0.906 0-1.097 0.696-2.031 1.671-2.384l0.018-0.006 9.127-3.803c0.264-0.1 0.569-0.158 0.887-0.158 1.418 0 2.567 1.149 2.567 2.567 0 1.099-0.691 2.037-1.662 2.403l-0.018 0.006-9.127 3.803z"></path>
<path fill="#3a549b" d="M411.476 481.703v0l-9.127-3.803c-0.992-0.359-1.689-1.293-1.689-2.39 0-0.326 0.061-0.637 0.173-0.923l-0.006 0.017c0.518-0.983 1.532-1.642 2.701-1.642 0.302 0 0.594 0.044 0.87 0.126l-0.022-0.006 9.127 3.803c0.992 0.359 1.689 1.293 1.689 2.39 0 0.326-0.061 0.637-0.173 0.923l0.006-0.017c-0.435 1.008-1.421 1.7-2.567 1.7-0.353 0-0.69-0.066-1.001-0.185l0.019 0.006z"></path>
<path fill="#3a549b" d="M535.958 410.969l-7.099-5.324c1.423-2.41 2.484-5.221 3.020-8.213l0.023-0.154c0.128-0.218 0.204-0.481 0.204-0.761s-0.076-0.542-0.208-0.768l0.004 0.007c-0.259-0.129-0.564-0.204-0.887-0.204s-0.628 0.075-0.899 0.21l0.012-0.005c-9.296 7.426-21.221 11.917-34.194 11.917-9.377 0-18.207-2.346-25.933-6.484l0.295 0.144h-1.521c-0.149 0.255-0.238 0.561-0.238 0.887s0.088 0.633 0.242 0.896l-0.005-0.008c1.867 3.573 4.432 6.543 7.535 8.824l0.070 0.049c5.898 4.605 13.417 7.384 21.584 7.384 0.523 0 1.043-0.011 1.56-0.034l-0.074 0.003h4.817c6.815-0.406 13.060-2.524 18.411-5.924l-0.157 0.093h13.944c0.182 0.107 0.4 0.17 0.634 0.17s0.452-0.063 0.64-0.173l-0.006 0.003c0.401-0.283 0.66-0.745 0.66-1.268 0-0.855-0.693-1.547-1.547-1.547-0.332 0-0.64 0.105-0.892 0.283l0.005-0.003z"></path>
<path fill="#3a549b" d="M297.896 410.969l6.338-5.324c-1.551-2.385-2.629-5.218-3.031-8.263l-0.011-0.103c-0.128-0.218-0.204-0.481-0.204-0.761s0.076-0.542 0.208-0.768l-0.004 0.007c0.223-0.108 0.484-0.171 0.761-0.171s0.538 0.063 0.771 0.176l-0.011-0.005c9.296 7.426 21.221 11.917 34.194 11.917 9.377 0 18.207-2.346 25.933-6.484l-0.295 0.144h1.775c0.179 0.246 0.286 0.554 0.286 0.887s-0.107 0.641-0.289 0.892l0.003-0.004c-1.688 3.618-4.191 6.609-7.285 8.828l-0.067 0.046c-5.987 4.607-13.59 7.383-21.842 7.383-0.521 0-1.040-0.011-1.556-0.033l0.074 0.002h-4.564c-6.9-0.419-13.228-2.534-18.676-5.929l0.168 0.098h-13.691c-0.218 0.128-0.481 0.204-0.761 0.204s-0.542-0.076-0.768-0.208l0.007 0.004c-0.057-0.179-0.090-0.384-0.090-0.597 0-1.12 0.908-2.028 2.028-2.028 0.213 0 0.418 0.033 0.611 0.094l-0.014-0.004z"></path>
<path fill="#3a549b" d="M709.879 123.468c-70.893-71.408-169.107-115.611-277.645-115.611-0.435 0-0.869 0.001-1.304 0.002h-28.074c-217.499 0.575-393.661 176.737-394.236 394.181v218.089c1.402 107.869 46.362 204.971 118.056 274.739l0.088 0.086 2.535 2.282v-25.353c0-41.579 2.282-98.622 2.789-135.384-0.042-0.895-0.067-1.943-0.067-2.998 0-23.603 12.126-44.374 30.488-56.424l0.256-0.158c8.554-5.447 18.662-9.295 29.509-10.854l0.408-0.048 10.141-2.535c8.113-86.707 20.282-218.288 33.973-354.939 7.859-79.101 43.607-174.427 168.596-177.47h28.649c125.243 3.549 160.99 98.622 168.85 177.47 2.789 28.395 5.578 58.058 8.62 88.228v1.521c10.395 105.975 19.268 202.822 25.353 265.444v0l4.564 1.268c34.311 4.179 60.63 33.131 60.63 68.23 0 0.792-0.013 1.58-0.040 2.365l0.003-0.114c0 39.043 2.028 103.693 2.789 146.539v19.015l3.042-2.789c71.561-70.956 115.863-169.305 115.863-278.001 0-0.309 0-0.619-0.001-0.928v0.048-218.034c0.003-0.561 0.005-1.224 0.005-1.888 0-107.69-43.486-205.223-113.857-275.997l0.018 0.018z"></path>
</svg>
