<!-- Generated by IcoMoon.io -->
<svg version="1.1" xmlns="http://www.w3.org/2000/svg" width="5644" height="1024" viewBox="0 0 5644 1024">
<title></title>
<path fill="#39539b" d="M332.509 684.271c12.434 0 20.857-2.407 23.665-9.626h18.852l4.412 4.011 10.027 100.274h-28.478l-4.412-2.808c-14.354-46.888-57.252-80.398-107.978-80.398-2.229 0-4.442 0.065-6.638 0.192l0.303-0.014c-58.56 0-89.846 53.747-89.846 153.62s33.692 153.219 97.868 153.219c49.514-3.664 92.489-28.848 120.013-66.134l0.316-0.448h5.214l12.033 11.632v5.214c-32.895 41.221-82.265 68.095-137.98 70.579l-0.399 0.014c-149.609 0.401-249.482-69.39-249.482-174.076s90.648-174.878 226.62-174.878c40.912 0 81.022 9.626 105.89 9.626z"></path>
<path fill="#39539b" d="M410.322 849.523c0-105.087 90.648-174.878 226.62-174.878s226.62 69.791 226.62 174.878-90.648 174.477-226.62 174.477-226.62-69.791-226.62-174.477zM712.348 849.523c0-110.703-23.264-153.62-85.033-153.62-48.132 0-65.78 42.917-65.78 153.62s22.863 153.219 84.631 153.219c48.132 0 66.181-42.917 66.181-153.219z"></path>
<path fill="#39539b" d="M892.44 701.117h-7.621l-2.407-1.604v-17.648l3.61-3.61 120.329 2.808 120.329-2.808 4.011 3.61v16.846l-3.61 3.209h-7.621c-10.468-1.793-22.526-2.818-34.823-2.818-0.731 0-1.461 0.004-2.19 0.011l0.112-0.001v302.026c85.835 0 181.697-47.731 203.757-114.313l4.813-3.209h24.467l3.61 4.412-10.027 136.373s-188.917-4.813-226.62-4.813h-196.939l-3.209-4.011v-16.445l3.61-3.61h7.621c11.071 2.001 23.835 3.166 36.863 3.209h0.038v-300.421c-0.951-0.015-2.073-0.024-3.198-0.024-12.327 0-24.413 1.030-36.177 3.008l1.271-0.177z"></path>
<path fill="#39539b" d="M1341.669 700.716l-8.824 2.005-3.61-2.808v-16.445l4.011-4.011 294.806-4.813c106.692 0 163.647 40.11 163.647 118.324s-59.362 117.922-169.664 117.922h-94.659v91.049c0.745 0.009 1.625 0.015 2.506 0.015 12.147 0 24.055-1.027 35.641-2.998l-1.246 0.175h7.621l3.61 3.209v16.445l-3.61 3.61-120.329-2.808-120.329 2.808-4.011-3.61v-16.445l3.61-3.209h7.621c10.468 1.793 22.526 2.818 34.823 2.818 0.731 0 1.461-0.004 2.19-0.011l-0.112 0.001v-304.432c-12.014 0.156-23.648 1.317-34.958 3.403l1.266-0.194zM1641.689 792.968c0-63.774-36.5-97.868-103.884-97.868h-9.626v194.532h9.626c66.582 0.802 103.884-33.291 103.884-96.664z"></path>
<path fill="#39539b" d="M1819.776 849.523c0-105.087 90.648-174.878 226.62-174.878s226.219 69.791 226.219 174.878-90.648 174.477-227.021 174.477-225.817-69.791-225.817-174.477zM2121.802 849.523c0-110.703-23.264-153.62-85.033-153.62-48.132 0-66.181 42.917-66.181 153.62s23.264 153.219 85.033 153.219c48.132 0 66.181-42.917 66.181-153.219z"></path>
<path fill="#39539b" d="M2323.152 905.676l6.418 3.61c28.3 57.238 86.282 95.908 153.296 95.908 1.383 0 2.763-0.016 4.138-0.049l-0.204 0.004c80.219 0 117.521-17.648 117.521-36.901 0-31.687-80.219-42.917-152.417-63.373s-146.801-50.137-146.801-120.329c0-56.956 69.791-111.104 186.51-111.104 43.72 0 83.027 10.429 107.895 10.429 12.835 0 22.060-2.407 26.071-10.429h30.884l4.011 4.011 9.626 103.884h-26.071l-4.813-2.808c-28.077-68.186-113.51-86.236-147.203-86.236-58.961 0-86.637 17.247-86.637 35.297 0 28.879 74.604 34.093 147.604 57.357s146.4 46.126 146.4 122.736-80.219 115.115-212.581 115.115c-40.11 0-89.846-16.445-120.329-16.445-0.955-0.108-2.063-0.169-3.185-0.169-7.356 0-14.096 2.641-19.323 7.026l0.047-0.038h-30.483l-4.412-3.61-9.626-105.087z"></path>
<path fill="#39539b" d="M3050.742 684.271c12.434 0 20.857-2.407 23.665-9.626h18.852l4.412 4.011 10.027 100.274h-29.681l-4.813-2.808c-14.354-46.888-57.252-80.398-107.978-80.398-2.229 0-4.442 0.065-6.638 0.192l0.303-0.014c-58.56 0-89.445 53.747-89.445 153.62s34.895 153.219 98.67 153.219c49.53-3.607 92.524-28.808 120.013-66.132l0.317-0.45h5.214l12.033 11.632v5.214c-32.662 41.183-81.707 68.149-137.126 70.976l-0.45 0.018c-150.411 0-250.284-69.791-250.284-174.477s90.648-174.878 226.62-174.878c41.313 0 81.423 9.626 106.291 9.626z"></path>
<path fill="#39539b" d="M3128.555 849.523c0-105.087 90.648-174.878 226.62-174.878s226.62 69.791 226.62 174.878-92.252 174.477-226.62 174.477-226.62-69.791-226.62-174.477zM3430.58 849.523c0-110.703-22.863-153.62-85.033-153.62-48.132 0-65.78 42.917-65.78 153.62s22.863 153.219 84.631 153.219c48.132 0 66.181-42.917 66.181-153.219z"></path>
<path fill="#39539b" d="M3609.871 700.716l-8.423 2.005-3.61-2.808v-16.445l4.011-4.011 294.806-4.813c106.692 0 163.647 40.11 163.647 118.324s-59.362 117.922-169.664 117.922h-94.659v91.049c0.745 0.009 1.625 0.015 2.506 0.015 12.147 0 24.055-1.027 35.641-2.998l-1.246 0.175h7.621l3.61 3.209v16.445l-3.61 3.61-120.329-2.808-120.329 2.808-4.011-3.61v-16.445l3.61-3.209h7.621c10.468 1.793 22.526 2.818 34.823 2.818 0.731 0 1.461-0.004 2.19-0.011l-0.112 0.001v-304.432c-12.165 0.167-23.938 1.328-35.392 3.404l1.299-0.195zM3910.292 792.968c0-63.774-36.5-97.868-103.884-97.868h-8.022v194.532h9.626c67.384 0.802 103.884-33.291 103.884-96.664z"></path>
<path fill="#39539b" d="M4091.187 701.117h-7.621l-4.011-3.209v-16.846l3.61-3.61 120.329 2.808 120.329-2.808 3.61 3.61v16.846l-4.011 3.209h-7.22c-10.468-1.793-22.526-2.818-34.823-2.818-0.731 0-1.461 0.004-2.19 0.011l0.112-0.001v302.026c0.618 0.006 1.347 0.010 2.078 0.010 12.297 0 24.354-1.025 36.092-2.994l-1.269 0.176h7.22l4.011 3.209v16.445l-3.61 3.61-120.329-2.808-120.329 2.808-3.61-3.61v-16.445l4.011-3.209h7.621c10.305 1.794 22.171 2.819 34.277 2.819 0.781 0 1.562-0.004 2.341-0.013l-0.119 0.001v-302.026c-0.661-0.008-1.441-0.012-2.222-0.012-12.106 0-23.973 1.025-35.517 2.994l1.24-0.175z"></path>
<path fill="#39539b" d="M4371.955 905.676l6.819 3.61c28.085 57.201 85.916 95.88 152.78 95.88 0.859 0 1.717-0.006 2.574-0.019l-0.129 0.002c80.219 0 117.521-17.648 117.521-36.901 0-31.687-80.219-42.917-152.417-63.373s-146.801-50.137-146.801-120.329c0-56.956 69.791-111.104 186.51-111.104 43.72 0 83.027 10.429 107.895 10.429 12.835 0 21.659-2.407 26.071-10.429h30.483l4.412 4.011 9.225 103.884h-24.066l-4.813-2.808c-28.478-68.186-113.911-86.236-147.203-86.236-58.961 0-87.038 17.247-87.038 35.297 0 28.879 74.604 34.093 148.005 57.357s145.999 46.126 145.999 122.736-80.219 115.115-212.18 115.115c-40.11 0-90.247-16.445-120.329-16.445-0.886-0.094-1.915-0.147-2.955-0.147-7.298 0-13.98 2.634-19.149 7.002l0.044-0.036h-30.483l-4.412-3.61-10.027-105.087z"></path>
<path fill="#39539b" d="M4776.26 778.529h-23.665l-3.209-4.412 9.225-94.258 4.412-4.011s123.137 4.813 160.439 4.813h114.313c37.703 0 160.439-4.813 160.439-4.813l4.412 4.011 9.225 94.258-3.209 4.412h-23.665c-29.28-70.192-53.747-80.219-129.153-80.219v302.026c0.618 0.006 1.347 0.010 2.078 0.010 12.297 0 24.354-1.025 36.092-2.994l-1.269 0.176h7.22l4.011 3.209v16.445l-3.61 3.61-120.329-2.808-120.329 2.808-3.61-3.61v-16.445l4.011-3.209h7.22c10.468 1.793 22.526 2.818 34.823 2.818 0.731 0 1.461-0.004 2.19-0.011l-0.112 0.001v-302.026c-74.203 0-98.67 10.027-127.95 80.219z"></path>
<path fill="#39539b" d="M5357.449 896.050h-84.631c-5.097 13.694-8.162 29.512-8.422 46.011l-0.001 0.115c0 31.687 14.841 55.351 48.533 55.351 1.619 0.104 3.51 0.164 5.415 0.164s3.796-0.060 5.671-0.177l-0.257 0.013 4.011 3.209-2.005 16.445-3.61 3.61-76.609-2.808-63.774 2.808-3.61-3.61v-16.445c50.706-70.638 96.719-151.039 134.189-236.053l3.388-8.616 32.489-75.807h23.665l113.51-4.813c2.89 12.867 6.475 23.986 10.932 34.65l-0.504-1.359 115.115 267.933c6.819 15.242 15.242 24.868 31.687 24.868l2.808 4.011v11.231l-4.412 3.61-105.89-3.61-93.857 2.808-4.011-3.61v-13.637l3.61-3.209c1.563 0.151 3.378 0.238 5.214 0.238s3.652-0.086 5.443-0.255l-0.229 0.017c3.831-0.195 6.864-3.349 6.864-7.211 0-0.286-0.017-0.568-0.049-0.845l0.003 0.034c0.18-0.844 0.284-1.814 0.284-2.808s-0.103-1.964-0.3-2.899l0.016 0.091-38.104-88.241c-16.044 0.802-48.533-1.203-62.571-1.203zM5349.427 737.617h-5.615l-60.967 134.769c19.253 2.005 60.566 5.615 74.604 5.615s35.297 0 52.544-2.005z"></path>
<path fill="#39539b" d="M433.987 445.618c1.287 4.33 3.352 8.081 6.054 11.276l-0.037-0.045q3.61 2.407 3.61 0h-104.686v-24.868c-9.173 10.589-21.355 18.347-35.212 21.953l-0.485 0.107c-20.404 6.703-43.887 10.568-68.273 10.568-2.791 0-5.57-0.051-8.336-0.151l0.4 0.012c-3.246 0.212-7.038 0.332-10.858 0.332-46.848 0-89.462-18.13-121.207-47.757l0.104 0.096c-29.502-33.549-47.505-77.837-47.505-126.329 0-5.229 0.209-10.409 0.62-15.532l-0.044 0.675c-0.163-2.939-0.256-6.379-0.256-9.841 0-50.284 19.645-95.979 51.679-129.829l-0.082 0.088c37.65-32.104 86.872-51.635 140.656-51.635 6.116 0 12.173 0.253 18.161 0.748l-0.785-0.052c0.983-0.005 2.146-0.007 3.309-0.007 27.091 0 53.84 1.46 80.175 4.305l-3.265-0.286c19.63 2.218 36.947 5.32 53.873 9.425l-2.933-0.601c6.921 1.484 12.954 3.418 18.716 5.867l-0.667-0.252v18.45l12.033 66.983c-5.779-4.049-12.397-7.563-19.434-10.223l-0.621-0.206c-15.956-7.322-34.705-13.668-54.189-18.077l-1.965-0.374c-23.693-5.118-50.91-8.049-78.813-8.049-1.623 0-3.243 0.010-4.861 0.030l0.246-0.002c-3.109-0.292-6.723-0.459-10.377-0.459-30.684 0-58.622 11.76-79.553 31.018l0.083-0.076c-17.759 22.373-28.491 51.023-28.491 82.178 0 3.687 0.15 7.338 0.445 10.949l-0.031-0.474c-0.092 2.209-0.145 4.801-0.145 7.405 0 22.799 4.022 44.659 11.394 64.908l-0.42-1.319c6.636 16.884 19.109 30.268 34.879 37.921l0.417 0.183c17.166 7.203 37.116 11.387 58.043 11.387 2.439 0 4.865-0.057 7.276-0.169l-0.341 0.013c2.413 0.164 5.231 0.257 8.071 0.257 20.75 0 40.335-4.986 57.623-13.826l-0.716 0.332c12.969-6.821 21.662-20.203 21.662-35.616 0-0.17-0.001-0.339-0.003-0.509v0.026-9.225c0.185-2.043 0.29-4.418 0.29-6.819s-0.105-4.776-0.312-7.123l0.022 0.304c-0.707-1.861-2.15-3.304-3.964-3.995l-0.047-0.016c-0.058 0-0.126 0-0.195 0-4.892 0-9.681 0.438-14.332 1.277l0.488-0.073h-19.654c-4.395-0.558-9.48-0.876-14.64-0.876s-10.245 0.318-15.237 0.937l0.597-0.060c-7.289 1.329-13.746 3.275-19.876 5.848l0.624-0.232c-2.913 1.179-5.428 2.663-7.683 4.46l0.062-0.047 6.016-60.566v-17.247h192.526s0 0-3.61 0c-2.664 3.15-4.729 6.901-5.96 11.012l-0.056 0.219c-1.837 6.026-2.895 12.953-2.895 20.126 0 1.245 0.032 2.482 0.095 3.711l-0.007-0.172v131.961c-0.093 1.409-0.147 3.055-0.147 4.713 0 7.466 1.079 14.679 3.090 21.493l-0.136-0.536z"></path>
<path fill="#39539b" d="M633.733 445.618c1.217 4.404 3.443 8.189 6.422 11.235l-0.005-0.005q3.61 2.407 3.61 0h-117.922s0 0 3.61 0c2.592-3.053 4.644-6.658 5.951-10.603l0.065-0.227c1.801-6.674 2.836-14.337 2.836-22.241 0-0.783-0.010-1.563-0.030-2.341l0.002 0.115v-293.202c0.019-0.679 0.031-1.478 0.031-2.28 0-7.746-1.036-15.251-2.976-22.382l0.138 0.596c-1.287-4.33-3.352-8.081-6.054-11.276l0.037 0.045c-2.407 0-3.61-2.407-3.61 0h117.922s0 0-3.61 0c-2.974 3.042-5.201 6.827-6.375 11.050l-0.043 0.181c-1.841 6.206-2.901 13.337-2.901 20.715 0 1.32 0.034 2.632 0.101 3.935l-0.007-0.183v292.801c-0.047 1.003-0.075 2.179-0.075 3.361 0 7.373 1.053 14.501 3.016 21.24l-0.134-0.536z"></path>
<path fill="#39539b" d="M1117.054 445.618c1.052 4.453 3.31 8.275 6.408 11.222l0.009 0.009q3.61 2.407 3.61 0h-105.087c2.005 0 2.407-2.407 0-7.22-5.378-11.697-12.095-21.752-20.139-30.577l0.084 0.093c-16.044-20.857-44.121-54.95-83.428-103.082s-65.379-80.219-80.219-95.461v0 200.548c-0.030 0.874-0.047 1.901-0.047 2.933 0 7.497 0.894 14.785 2.582 21.763l-0.129-0.63c1.217 4.404 3.443 8.189 6.422 11.235l-0.005-0.005c2.808 0 4.011 0 4.011 0h-120.329s0 0 3.61 0c3.108-2.955 5.366-6.777 6.387-11.078l0.031-0.153c1.83-6.204 2.882-13.331 2.882-20.705 0-1.182-0.027-2.358-0.081-3.527l0.006 0.166v-292.801c0.054-1.060 0.085-2.301 0.085-3.55 0-7.309-1.057-14.37-3.025-21.041l0.133 0.525c-1.148-4.293-3.388-7.963-6.407-10.82l-0.011-0.010c-2.407-2.005-3.61-2.808-3.61-2.005h118.324s0 0 0 3.209 6.819 17.648 20.857 33.692l148.807 174.076v-174.076c0.035-0.934 0.054-2.032 0.054-3.134 0-7.427-0.897-14.645-2.589-21.55l0.128 0.619c-1.313-4.241-3.523-7.876-6.422-10.834l0.004 0.004c-2.808-2.005-4.011-2.808-4.011-2.005h120.329s0 0-3.61 0c-3.108 2.955-5.366 6.777-6.387 11.078l-0.031 0.153c-1.841 6.206-2.901 13.337-2.901 20.715 0 1.32 0.034 2.632 0.101 3.935l-0.007-0.183v292.801c-0.025 0.725-0.039 1.578-0.039 2.434 0 8.303 1.335 16.295 3.802 23.772l-0.153-0.536z"></path>
<path fill="#39539b" d="M1585.134 441.206v18.852h-369.41s0 0 3.61 0c2.974-3.042 5.201-6.827 6.375-11.050l0.043-0.181c1.83-6.204 2.882-13.331 2.882-20.705 0-1.182-0.027-2.358-0.081-3.527l0.006 0.166v-296.41c0.054-1.060 0.085-2.301 0.085-3.55 0-7.309-1.057-14.37-3.025-21.041l0.133 0.525c-1.313-4.241-3.523-7.876-6.422-10.834l0.004 0.004c-2.407-2.005-3.61-2.808-3.61-2.005h356.575v18.45l12.434 70.994-20.456-6.418c-14.49-4.509-31.862-8.301-49.688-10.652l-1.652-0.178c-18.055-2.175-38.963-3.416-60.161-3.416-5.22 0-10.422 0.075-15.605 0.225l0.761-0.017h-107.895c-2.726 0.261-5.048 1.786-6.397 3.975l-0.021 0.036c-0.293 1.928-0.461 4.153-0.461 6.418s0.167 4.489 0.491 6.663l-0.030-0.246v44.923c-0.315 1.989-0.495 4.283-0.495 6.618s0.18 4.629 0.526 6.868l-0.032-0.249c0.969 2.33 3.057 4.019 5.575 4.407l0.040 0.005h105.89c3.498 0.14 7.603 0.22 11.728 0.22 13.113 0 26.036-0.809 38.724-2.379l-1.518 0.153c10.682-1.178 20.343-3.153 29.664-5.917l-1.186 0.302 9.626-3.61-7.22 36.5c-2.669 12.545-4.535 27.285-5.194 42.339l-0.020 0.579h-160.439c-2.646-0.274-5.717-0.431-8.824-0.431s-6.178 0.156-9.205 0.462l0.381-0.031c-2.632 0.206-4.804 1.973-5.602 4.367l-0.013 0.045c-0.304 1.929-0.478 4.153-0.478 6.418s0.174 4.489 0.509 6.66l-0.031-0.242v46.126c-0.309 2.049-0.485 4.413-0.485 6.819s0.176 4.77 0.517 7.081l-0.032-0.262c0.969 2.33 3.057 4.019 5.575 4.407l0.040 0.005c2.646 0.274 5.717 0.431 8.824 0.431s6.178-0.156 9.205-0.462l-0.381 0.031h162.845c1.385 0.039 3.014 0.062 4.648 0.062 15.159 0 29.868-1.924 43.897-5.542l-1.216 0.266c10.848-3.007 20.306-6.976 29.112-11.962l-0.634 0.33c6.418-4.412 9.626-6.819 9.626-7.621z"></path>
<path fill="#39539b" d="M2019.522 372.218l6.016 61.368s-5.214 4.412-16.044 9.626c-14.944 6.401-32.352 11.436-50.488 14.278l-1.253 0.162c-25.519 4.375-54.911 6.876-84.888 6.876-2.73 0-5.456-0.021-8.177-0.062l0.411 0.005c-5.368 0.44-11.62 0.691-17.931 0.691-52.848 0-101.587-17.592-140.681-47.238l0.58 0.421c-32.409-32.859-52.424-78.015-52.424-127.845 0-5.544 0.248-11.030 0.733-16.448l-0.051 0.7c-0.176-3.029-0.276-6.572-0.276-10.139 0-49.938 19.668-95.282 51.681-128.708l-0.064 0.067c37.766-31.977 87.033-51.418 140.841-51.418 6.9 0 13.725 0.32 20.462 0.945l-0.864-0.065c1.066-0.006 2.328-0.009 3.59-0.009 26.991 0 53.642 1.46 79.877 4.306l-3.248-0.286c19.55 2.169 36.869 5.272 53.781 9.412l-2.842-0.588c6.791 1.522 12.685 3.453 18.319 5.871l-0.671-0.256v18.45l12.033 66.983c-6.46-4.271-13.91-7.82-21.845-10.265l-0.617-0.164c-16.23-7.237-35.387-13.584-55.254-18.053l-2.103-0.398c-23.415-5.105-50.312-8.029-77.892-8.029-0.818 0-1.635 0.003-2.452 0.008l0.125-0.001c-3.171-0.297-6.857-0.466-10.583-0.466-30.611 0-58.553 11.431-79.789 30.257l0.125-0.109c-17.519 22.284-28.098 50.745-28.098 81.677 0 3.722 0.153 7.408 0.454 11.053l-0.032-0.478c-0.075 1.89-0.118 4.109-0.118 6.337 0 22.714 4.463 44.385 12.561 64.185l-0.41-1.132c8.204 17.876 22.233 31.905 39.611 39.904l0.498 0.206c21.323 8.237 45.996 13.009 71.785 13.009 2.966 0 5.918-0.063 8.854-0.188l-0.419 0.014c1.759 0.046 3.829 0.072 5.906 0.072 23.751 0 46.71-3.395 68.416-9.727l-1.723 0.431c17.707-5.191 33.145-12.16 47.353-20.93l-0.826 0.474c10.83-7.22 16.445-11.632 16.445-12.835z"></path>
<path fill="#39539b" d="M2368.877 206.164c23.53 27.427 37.853 63.352 37.853 102.621 0 2.419-0.054 4.826-0.162 7.218l0.012-0.34c0.208 3.012 0.327 6.528 0.327 10.071 0 37.942-13.613 72.704-36.221 99.67l0.197-0.241c-28.226 25.25-65.694 40.684-106.768 40.684-4.774 0-9.499-0.208-14.167-0.617l0.605 0.043c-4.062 0.366-8.787 0.574-13.561 0.574-41.073 0-78.542-15.434-106.922-40.82l0.154 0.136c-22.391-26.969-35.979-61.946-35.979-100.097 0-3.308 0.102-6.591 0.303-9.848l-0.022 0.446c-0.365-4.057-0.573-8.776-0.573-13.543 0-36.165 11.966-69.535 32.154-96.367l-0.296 0.411c27.856-25.295 65.019-40.781 105.8-40.781 5.116 0 10.175 0.244 15.166 0.72l-0.636-0.049c4.721-0.493 10.199-0.774 15.744-0.774 41.179 0 78.735 15.514 107.141 41.016l-0.149-0.132zM2288.658 394.679c10.447-5.649 18.312-14.948 21.969-26.149l0.091-0.323c4.652-13.917 7.337-29.941 7.337-46.592 0-2.093-0.042-4.176-0.126-6.249l0.010 0.297c0.325-3.19 0.511-6.894 0.511-10.641 0-21.599-6.163-41.758-16.827-58.815l0.272 0.467c-12.37-12.169-29.352-19.682-48.089-19.682-2.7 0-5.364 0.156-7.983 0.46l0.319-0.030c-2.12-0.244-4.576-0.383-7.066-0.383-18.686 0-35.541 7.839-47.456 20.408l-0.028 0.029c-10.379 16.657-16.533 36.88-16.533 58.54 0 3.679 0.178 7.317 0.525 10.905l-0.036-0.456c-0.324 3.126-0.509 6.755-0.509 10.427 0 20.949 6.015 40.493 16.412 56.999l-0.261-0.443c12.129 11.273 28.44 18.191 46.366 18.191 3.026 0 6.006-0.197 8.928-0.579l-0.344 0.037c2.42 0.224 5.233 0.351 8.076 0.351 12.556 0 24.531-2.487 35.46-6.995l-0.619 0.226zM2306.707 9.225c-0.576 5.812-2.749 11.027-6.067 15.31l0.051-0.068c-15.884 22.312-33.022 41.868-51.925 59.562l-0.218 0.202c-21.659 21.258-37.302 31.687-45.725 31.687-2.005 0-3.209-2.005-3.209-6.016 1.48-14.809 4.739-28.403 9.592-41.213l-0.367 1.103c6.418-18.852 12.434-36.099 19.253-51.741 1.737-5.94 5.266-10.899 9.955-14.388l0.073-0.052c4.47-2.342 9.765-3.716 15.381-3.716 0.939 0 1.869 0.038 2.789 0.114l-0.121-0.008h37.302c8.824 0 13.236 3.209 13.236 9.225z"></path>
<path fill="#39539b" d="M2807.677 385.053c10.826-2.918 20.292-6.893 29.061-11.942l-0.583 0.31c6.418-4.412 9.626-6.819 9.626-7.621l-18.049 75.406v18.852h-346.146s0 0 3.61 0c2.974-3.042 5.201-6.827 6.375-11.050l0.043-0.181c1.794-6.693 2.825-14.377 2.825-22.302 0-0.62-0.006-1.239-0.019-1.856l0.001 0.092v-296.41c0.015-0.595 0.023-1.296 0.023-1.998 0-7.844-1.033-15.446-2.97-22.679l0.139 0.611c-0.824-4.137-2.507-7.785-4.861-10.896l0.048 0.066c-2.407-2.005-3.61-2.808-3.61-2.005h120.329s0 0-3.61 0c-2.974 3.042-5.201 6.827-6.375 11.050l-0.043 0.181c-1.841 6.206-2.901 13.337-2.901 20.715 0 1.32 0.034 2.632 0.101 3.935l-0.007-0.183v244.268c-0.274 2.048-0.431 4.415-0.431 6.819s0.157 4.771 0.46 7.092l-0.029-0.273c0 2.407 2.808 3.61 6.016 4.412 2.706 0.278 5.847 0.437 9.025 0.437s6.319-0.159 9.415-0.468l-0.391 0.032h147.203c1.84 0.069 4.002 0.109 6.173 0.109 14.027 0 27.669-1.648 40.744-4.76l-1.192 0.239z"></path>
<path fill="#39539b" d="M3263.323 134.367c29.865 33.541 48.112 77.997 48.112 126.714 0 4.245-0.139 8.457-0.411 12.633l0.030-0.568q0 191.323-195.735 191.323h-18.852q-200.548 0-200.548-191.323c-0.253-3.657-0.398-7.927-0.398-12.229 0-48.804 18.585-93.268 49.064-126.699l-0.134 0.149c35.485-30.935 82.197-49.796 133.315-49.796 6.585 0 13.096 0.313 19.52 0.925l-0.819-0.063h18.852c4.79-0.407 10.367-0.639 15.997-0.639 50.661 0 96.934 18.784 132.235 49.768l-0.227-0.195zM3192.329 368.207c16.44-22.698 26.297-51.1 26.297-81.804 0-4.668-0.228-9.282-0.673-13.833l0.046 0.577c0.389-3.805 0.612-8.221 0.612-12.69 0-30.026-10.029-57.71-26.919-79.886l0.236 0.323c-19.153-17.668-44.842-28.502-73.062-28.502-3.367 0-6.698 0.154-9.987 0.456l0.422-0.031h-6.418c-2.983-0.283-6.451-0.444-9.956-0.444-28.935 0-55.306 10.982-75.17 29.005l0.093-0.083c-17.090 21.885-27.403 49.786-27.403 80.096 0 4.139 0.192 8.232 0.568 12.273l-0.039-0.517c-0.384 3.812-0.603 8.239-0.603 12.717 0 30.985 10.488 59.52 28.106 82.249l-0.229-0.307c19.606 17.94 45.831 28.931 74.623 28.931 3.524 0 7.009-0.165 10.449-0.487l-0.44 0.033h6.418c3.019 0.301 6.524 0.473 10.070 0.473 28.195 0 53.854-10.855 73.027-28.613l-0.070 0.064z"></path>
<path fill="#39539b" d="M3773.117 445.618c1.287 4.33 3.352 8.081 6.054 11.276l-0.037-0.045q3.61 2.407 3.61 0h-104.686v-24.868c-9.173 10.589-21.355 18.347-35.212 21.953l-0.485 0.107c-20.358 6.697-43.789 10.56-68.123 10.56-2.702 0-5.394-0.048-8.073-0.142l0.388 0.011c-3.379 0.231-7.324 0.362-11.3 0.362-46.713 0-89.186-18.149-120.755-47.779l0.094 0.088c-29.746-33.402-47.921-77.676-47.921-126.195 0-5.276 0.215-10.503 0.637-15.67l-0.045 0.679c-0.163-2.939-0.256-6.379-0.256-9.841 0-50.284 19.645-95.979 51.679-129.829l-0.082 0.088c37.734-32.21 87.082-51.808 141.007-51.808 6.841 0 13.609 0.315 20.289 0.933l-0.857-0.064c1.019-0.005 2.224-0.008 3.43-0.008 27.048 0 53.756 1.46 80.048 4.305l-3.258-0.286c19.55 2.169 36.869 5.272 53.781 9.412l-2.842-0.588c6.921 1.484 12.954 3.418 18.716 5.867l-0.667-0.252v18.45l12.033 66.983c-5.77-4.174-12.401-7.699-19.496-10.253l-0.559-0.176c-16.74-7.577-36.335-13.948-56.725-18.135l-1.835-0.315c-23.611-5.12-50.734-8.053-78.543-8.053-1.718 0-3.433 0.011-5.145 0.033l0.26-0.003c-3.17-0.308-6.852-0.483-10.576-0.483-30.497 0-58.244 11.777-78.939 31.032l0.071-0.065c-18.009 22.221-28.912 50.84-28.912 82.006 0 3.748 0.158 7.458 0.467 11.126l-0.033-0.479c-0.235 3.536-0.369 7.666-0.369 11.827 0 21.304 3.512 41.788 9.987 60.905l-0.393-1.337c6.741 16.82 19.18 30.169 34.878 37.918l0.418 0.187c17.166 7.203 37.116 11.387 58.043 11.387 2.439 0 4.865-0.057 7.276-0.169l-0.341 0.013c2.413 0.164 5.231 0.257 8.071 0.257 20.75 0 40.335-4.986 57.623-13.826l-0.716 0.332c12.969-6.821 21.662-20.203 21.662-35.616 0-0.17-0.001-0.339-0.003-0.509v0.026-9.626c0.287-2.048 0.451-4.414 0.451-6.819s-0.164-4.771-0.481-7.088l0.030 0.269c-0.527-1.967-2.044-3.484-3.972-4.002l-0.039-0.009c-1.982-0.174-4.289-0.273-6.618-0.273s-4.636 0.099-6.915 0.294l0.297-0.020h-19.654c-2.966-0.255-6.419-0.4-9.905-0.4-6.984 0-13.831 0.583-20.496 1.704l0.72-0.1c-7.097 1.245-13.424 3.194-19.383 5.825l0.531-0.209c-3.070 1.107-5.726 2.601-8.082 4.458l0.061-0.046 6.016-60.566v-17.247h192.526s0 0-3.61 0c-2.664 3.15-4.729 6.901-5.96 11.012l-0.056 0.219c-1.798 6.496-2.832 13.956-2.832 21.656 0 0.706 0.009 1.41 0.026 2.112l-0.002-0.104v131.961c0.088 9.191 1.548 18.010 4.185 26.304l-0.174-0.633z"></path>
<path fill="#39539b" d="M4144.934 456.849c2.025-1.643 3.557-3.822 4.384-6.321l0.028-0.096c1.55-3.293 2.455-7.151 2.455-11.222 0-0.568-0.018-1.131-0.052-1.69l0.004 0.077c-0.207-6.090-0.927-11.881-2.121-17.497l0.116 0.651-3.61-15.242c-1.289-4.873-3.214-9.147-5.721-13.008l0.105 0.173c-2.266-2.6-5.537-4.274-9.202-4.411l-0.023-0.001c-3.541-0.273-7.669-0.429-11.832-0.429s-8.291 0.156-12.377 0.462l0.545-0.033h-105.087c-3.778-0.258-8.189-0.405-12.635-0.405s-8.856 0.147-13.229 0.436l0.594-0.031c-3.954 0.056-7.504 1.738-10.021 4.405l-0.006 0.007c-2.382 3.536-4.078 7.734-4.79 12.259l-0.023 0.175-3.209 15.643c-1.363 6.192-2.23 13.371-2.404 20.721l-0.003 0.136c-0.251 1.687-0.395 3.635-0.395 5.615s0.144 3.928 0.421 5.832l-0.026-0.217c0 2.407 0 4.011 2.808 4.412h-125.142s0 0 3.61 0c3.221-3.141 6.013-6.7 8.295-10.593l0.128-0.236c4.319-7.009 8.488-15.187 12.007-23.701l0.427-1.167q24.066-55.351 68.588-160.439c29.681-70.192 48.132-114.313 54.95-131.159 4.135-9.12 7.107-19.698 8.377-30.794l0.046-0.492c0.196-0.661 0.309-1.42 0.309-2.206s-0.113-1.545-0.324-2.263l0.014 0.057h133.164s0 0 0 0c-0.147 0.602-0.231 1.294-0.231 2.005s0.084 1.403 0.243 2.066l-0.012-0.060c1.346 11.738 4.316 22.45 8.703 32.398l-0.28-0.711c7.22 19.654 27.275 68.186 59.763 146.4s49.335 124.741 59.362 144.395c3.896 9.495 8.609 17.688 14.242 25.149l-0.203-0.281c3.143 4.352 7.011 7.965 11.461 10.731l0.17 0.099c3.209 0 4.813 0 4.813 0h-138.779zM4104.824 318.872c2.808 0 4.412-2.407 4.412-4.813-0.689-3.919-1.804-7.418-3.319-10.694l0.11 0.266c-12.434-29.681-24.467-60.967-35.297-93.456s-14.841-49.736-14.841-49.736v0l-53.747 141.186c-1.654 3.337-3.034 7.22-3.945 11.281l-0.066 0.351c0.128 2.563 1.957 4.665 4.375 5.207l0.037 0.007c2.412 0.428 5.188 0.673 8.022 0.673s5.61-0.245 8.309-0.715l-0.288 0.041h72.599c4.484 1.258 9.696 2.118 15.062 2.399l0.18 0.008z"></path>
</svg>
