<!-- Generated by IcoMoon.io -->
<svg version="1.1" xmlns="http://www.w3.org/2000/svg" width="1018" height="1024" viewBox="0 0 1018 1024">
<title></title>
<g id="icomoon-ignore">
</g>
<path fill="#39539b" d="M748.853 1024c-69.921-18.644-127.974-38.506-184.279-61.742l9.83 3.593c-257.311-120.456-454.107-334.319-549.389-596.865l-2.323-7.323c-13.795-32.223-21.816-69.719-21.816-109.089 0-23.189 2.783-45.727 8.032-67.301l-0.399 1.941c2.507-11.251 6.42-21.199 11.625-30.313l-0.278 0.529c37.801-56.764 85.064-104.027 140.007-140.685l1.822-1.144c13.816-9.191 30.792-14.665 49.047-14.665 25.294 0 48.133 10.51 64.388 27.401l0.027 0.029c51.058 46.803 99.28 96.443 141.828 141.828 16.061 16.98 25.935 39.957 25.935 65.241s-9.874 48.261-25.977 65.286l0.042-0.045c-22.297 26.765-45.488 50.854-70.287 73.194l-0.627 0.556c-4.131 3.656-6.722 8.971-6.722 14.892s2.591 11.236 6.701 14.874l0.021 0.018c64.966 112.759 155.161 204.317 263.273 269.026l3.365 1.866c4.058 3.847 9.553 6.214 15.601 6.214s11.544-2.366 15.611-6.223l-0.010 0.010c21.278-27.623 42.641-52.133 65.368-75.299l-0.127 0.13c17.201-16.151 40.417-26.074 65.95-26.074s48.749 9.922 66.001 26.121l-0.051-0.048c49.64 46.803 97.861 95.025 141.828 141.828 18.757 17.863 30.422 43.026 30.422 70.914s-11.665 53.051-30.382 70.876l-0.040 0.038c-30.227 36.536-62.743 69.052-98.063 98.301l-1.216 0.979c-24.098 16.446-51.714 30.792-81.011 41.68l-2.668 0.869zM63.823 249.618c5.773 48.618 16.236 92.758 31.119 134.809l-1.335-4.327c84.028 201.887 225.588 365.846 404.104 475.47l4.361 2.491c65.651 44.863 142.518 79.185 225.186 98.385l4.576 0.895c11.953 3.638 25.69 5.733 39.917 5.733 34.538 0 66.193-12.346 90.792-32.865l-0.227 0.184 76.587-79.424c11.529-8.623 18.911-22.242 18.911-37.584s-7.383-28.961-18.789-37.497l-0.122-0.088-121.972-121.972c-7.733-11.537-20.72-19.029-35.457-19.029s-27.724 7.492-35.36 18.876l-0.097 0.153-75.169 73.751c-8.007 11.8-21.359 19.451-36.497 19.451-10.367 0-19.897-3.588-27.414-9.591l0.088 0.068c-49.525-28.153-91.688-56.291-131.724-87.061l2.66 1.964c-80.028-60.654-145.301-136.346-192.494-223.28l-1.811-3.646c-5.434-8.274-8.668-18.415-8.668-29.311 0-17.516 8.356-33.081 21.3-42.924l0.133-0.097 69.496-69.496c26.947-28.366 28.366-46.803 0-75.169s-82.26-86.515-120.554-126.227c-8.275-12.104-22.014-19.945-37.584-19.945s-29.309 7.841-37.484 19.789l-0.101 0.156c-28.366 22.693-45.385 46.803-69.496 68.078-23.129 21.783-37.531 52.609-37.531 86.799 0 4.396 0.238 8.737 0.702 13.010l-0.047-0.529z"></path>
</svg>
