<svg xmlns="http://www.w3.org/2000/svg" viewBox="0 0 89.18 130.42"><defs><style>.cls-1,.cls-2,.cls-4{fill:none;stroke:#39539b;}.cls-1,.cls-4{stroke-linecap:round;stroke-linejoin:round;}.cls-1,.cls-2{stroke-width:1.38px;}.cls-2{stroke-miterlimit:10;}.cls-3{fill:#39539b;}.cls-4{stroke-width:1.06px;}</style></defs><title>Recurso 3</title><g id="Capa_2" data-name="Capa 2"><g id="Layer_1" data-name="Layer 1"><path class="cls-1" d="M74.28,98s0-7.29,0-12.1c0-5.62-3.72-8.67-11.63-8.67"/><g id="jtpRWJ.tif"><path class="cls-2" d="M14.7,115.24a6.37,6.37,0,0,1-.88.58,4.6,4.6,0,0,1-1,.38,7.79,7.79,0,0,1-1.27.29,5.25,5.25,0,0,1-1,0,4.39,4.39,0,0,1-.81-.11,5.89,5.89,0,0,1-.75-.2L8.46,116l-.54-.29c-.2-.11-.4-.22-.59-.35a6.12,6.12,0,0,1-.49-.4c-.17-.14-.33-.28-.49-.44a3.33,3.33,0,0,1-.36-.39q-.27-.33-.51-.69c-.1-.15-.19-.33-.28-.49a6.76,6.76,0,0,1-.73-2c-.08-.34-.14-.68-.2-1s0-.45-.06-.68c0-.42,0-.85,0-1.27a12.1,12.1,0,0,1,.13-1.21c.07-.43.15-.85.25-1.27s.22-.75.34-1.11.27-.79.41-1.18.22-.51.33-.76.2-.47.31-.69.28-.56.42-.83.39-.74.59-1.11.28-.45.42-.68.32-.55.49-.82l.36-.53.45-.66c.09-.14.19-.27.29-.41l.37-.54c.1-.13.2-.25.29-.38l.54-.72.31-.39c.19-.23.37-.47.56-.71s.32-.38.47-.56l.37-.45.55.19.69.24.65.23.74.28.51.19.59.26.54.22.74.34.74.34c.18.08.35.18.53.27l.54.27.49.28.45.25c.25.14.49.29.73.44l.39.24.69.48.51.36.59.47.81.69.33.34.52.52a2.29,2.29,0,0,1,.21.23l.77,1a3,3,0,0,1,.2.29c.21.34.42.67.6,1s.28.64.43.95a8,8,0,0,1,.52,1.86,5.88,5.88,0,0,1,.1.94,6.46,6.46,0,0,1,0,.88,5,5,0,0,1-.12.86,11.35,11.35,0,0,1-.32,1.14,5,5,0,0,1-.3.76,6.74,6.74,0,0,1-.45.79,6.54,6.54,0,0,1-.48.69c-.12.15-.26.29-.4.44s-.28.29-.43.43a3.92,3.92,0,0,1-.32.25l-.46.3c-.2.13-.41.27-.62.38a7,7,0,0,1-2.1.61"/></g><path class="cls-3" d="M13.84,114.25l-.06,0a6.29,6.29,0,0,1-.73.37,5.07,5.07,0,0,1-.77.2,1.27,1.27,0,0,0-1,1.45,1.22,1.22,0,0,0,1.15,1.09h.19a6.29,6.29,0,0,0,1.19-.32,7,7,0,0,0,1-.5l.06,0a1.34,1.34,0,0,0,.52-1.72A1.14,1.14,0,0,0,13.84,114.25Z"/><path class="cls-3" d="M24.39,112.38a1.15,1.15,0,0,0-1.55-.67,5.68,5.68,0,0,1-1.75.51,1.16,1.16,0,0,0-.79.47,1.34,1.34,0,0,0-.26.93,1.2,1.2,0,0,0,1.28,1.14h0c.21,0,.42-.06.63-.1a8.2,8.2,0,0,0,1.79-.6,1.26,1.26,0,0,0,.63-.71A1.35,1.35,0,0,0,24.39,112.38Z"/><path class="cls-2" d="M19.13,42.57s-.75,11.87,5.15,11.51"/><path class="cls-2" d="M69.08,42.92s1.41,11.52-4.49,11.16"/><path class="cls-2" d="M12.56,81.78C13.83,68,15.7,48,17.77,27.37,19.91,5.9,32.59,1,43,.69h4.36C57.8,1,70.46,5.92,72.6,27.37c2.08,20.72,4,40.78,5.22,54.56"/><path class="cls-2" d="M33.57,2.92S33.33,8.25,46,17.53C69.69,35,73.37,47.7,77.43,77.94"/><path class="cls-2" d="M66.7,38.47c0,17.86-9.93,33.47-22.25,33.47S22.16,57.46,22.16,39.61c0-.77,0-4.11.05-4.86"/><path class="cls-2" d="M40.35,13.14s-17.61,6.2-25.59,45.27"/><circle class="cls-1" cx="74.28" cy="101.47" r="3.52"/><polyline class="cls-2" points="59.74 77.09 57.61 76.77 55.9 67.6"/><polygon class="cls-1" points="59.91 77.13 44.96 118.11 66.57 93.74 61.45 90.5 70.5 89.98 62.35 77.15 59.91 77.13"/><path class="cls-1" d="M63.23,78.15,78.9,82.36a10,10,0,0,1,8.82,10.28c.1,6.64.63,29,.77,35.55"/><line class="cls-1" x1="38.36" y1="100.45" x2="51.22" y2="100.45"/><polyline class="cls-2" points="29.55 77.09 31.68 76.77 33.39 67.6"/><polygon class="cls-1" points="29.38 77.08 45.03 118.11 22.72 93.74 27.84 90.5 18.79 89.98 26.94 77.1 29.38 77.08"/><path class="cls-1" d="M26.1,78,10.7,81.65s-9,1.55-9.13,11c-.1,6.43-.73,29.59-.88,36.09"/><line class="cls-1" x1="16.45" y1="121.22" x2="16.48" y2="118.98"/><line class="cls-1" x1="16.35" y1="128.03" x2="16.39" y2="124.97"/><line class="cls-1" x1="73.91" y1="121.22" x2="73.95" y2="109.23"/><line class="cls-1" x1="73.86" y1="128.87" x2="73.88" y2="125.4"/><path class="cls-2" d="M12.28,93.42A11.76,11.76,0,0,1,23.1,77.1h3.84"/><line class="cls-1" x1="44.94" y1="129.73" x2="44.94" y2="125.17"/><path class="cls-1" d="M54.22,116.47l-8,8a1.77,1.77,0,0,1-2.49,0l-8-8"/><path class="cls-4" d="M62.86,27.15A51.28,51.28,0,0,1,74.5,47.61"/><path class="cls-4" d="M37.91,1.66S37.67,7,50.29,16.27a100,100,0,0,1,9.68,8"/><path class="cls-4" d="M46.38,7.85A49.64,49.64,0,0,0,53,13.57C64.15,21.76,70.41,29,74.16,40.94"/><path class="cls-4" d="M42.2.81s-.07,1.41,1.72,4"/><path class="cls-4" d="M46.71.79s-.18,3.8,8.95,10.4,14.4,12.55,17.5,22.31"/><path class="cls-4" d="M63.27,13.33a29.64,29.64,0,0,1,9.11,14"/><path class="cls-4" d="M51.1,1S51,4.06,58.3,9.38"/><path class="cls-4" d="M61.23,8.16c5.31,3.72,8.29,7,10.08,12.41"/><path class="cls-4" d="M58.21,5.71a24.64,24.64,0,0,0,3,2.45"/><path class="cls-4" d="M23.75,26.41c-3.37,6.43-6.61,15.25-8.66,27.22"/><path class="cls-4" d="M37.42,10.45S31.77,13.2,25.89,22.67"/><path class="cls-4" d="M27.64,14.81c-3.91,5.19-8.49,14.08-11.56,29"/><path class="cls-4" d="M35.29,7.92a15,15,0,0,0-4.4,3.19"/><path class="cls-4" d="M33.81,4.76s-11.63,4-16.91,29.36"/><line class="cls-4" x1="18.65" y1="54.23" x2="19.2" y2="48.6"/><line class="cls-4" x1="16.22" y1="79.07" x2="18.26" y2="58.21"/><line class="cls-4" x1="20.72" y1="64.72" x2="21.84" y2="53.42"/><line class="cls-4" x1="19.45" y1="77.47" x2="20.43" y2="67.6"/><line class="cls-4" x1="22.8" y1="76.7" x2="24.95" y2="54.92"/><line class="cls-4" x1="26.03" y1="71.64" x2="27.31" y2="60.33"/><line class="cls-4" x1="25.45" y1="76.83" x2="25.7" y2="74.56"/><line class="cls-4" x1="28.41" y1="76.76" x2="30.06" y2="64"/><line class="cls-4" x1="70.45" y1="55.59" x2="69.4" y2="48.15"/><line class="cls-4" x1="74.04" y1="80.94" x2="70.95" y2="59.13"/><line class="cls-4" x1="69.38" y1="71.43" x2="67.16" y2="53.36"/><line class="cls-4" x1="70.33" y1="79.19" x2="69.85" y2="75.28"/><line class="cls-4" x1="66.78" y1="77.5" x2="64.21" y2="54.92"/><line class="cls-4" x1="62.32" y1="64.29" x2="61.8" y2="59.81"/><line class="cls-4" x1="63.79" y1="76.88" x2="62.73" y2="67.82"/><line class="cls-4" x1="60.75" y1="76.76" x2="59.1" y2="64"/><path class="cls-4" d="M31.68,76.77a12.94,12.94,0,0,0,4.24,1.57"/><path class="cls-4" d="M32,74.68a12,12,0,0,0,3,1.26"/><path class="cls-4" d="M32.34,72.59a10.78,10.78,0,0,0,1.95.93"/><path class="cls-4" d="M57.54,76.77a12.81,12.81,0,0,1-4.23,1.57"/><path class="cls-4" d="M57.21,74.68a11.76,11.76,0,0,1-3,1.26"/><path class="cls-4" d="M56.89,72.59a10.7,10.7,0,0,1-2,.93"/><line class="cls-4" x1="58.64" y1="81.82" x2="60.41" y2="81.82"/><line class="cls-4" x1="57.54" y1="84.68" x2="61.08" y2="84.68"/><line class="cls-4" x1="56.28" y1="87.3" x2="62.3" y2="87.3"/><line class="cls-4" x1="55.43" y1="90.08" x2="57.87" y2="90.08"/><line class="cls-4" x1="54.52" y1="92.77" x2="56.09" y2="92.77"/><line class="cls-4" x1="30.95" y1="81.82" x2="29.18" y2="81.82"/><line class="cls-4" x1="32.05" y1="84.68" x2="28.51" y2="84.68"/><line class="cls-4" x1="33.31" y1="87.3" x2="27.29" y2="87.3"/><line class="cls-4" x1="34.16" y1="90.08" x2="31.72" y2="90.08"/><line class="cls-4" x1="35.07" y1="92.77" x2="33.5" y2="92.77"/><circle class="cls-2" cx="32.32" cy="41.74" r="9.92"/><circle class="cls-2" cx="56.76" cy="41.74" r="9.92"/><path class="cls-2" d="M42.24,41.74s2.45-1.79,4.6,0"/><path class="cls-3" d="M41.51,61.9a8,8,0,0,0,6.06.08c0,1.9-2.6,2.11-2.94,2.11C43.71,64.08,41.65,63.68,41.51,61.9Z"/><path class="cls-3" d="M48.7,59.88c-.79-.38-2.5-1.08-3.84-.57a1,1,0,0,1-.65,0c-1.34-.51-3.05.19-3.83.57a5.64,5.64,0,0,1-2.77-.06c.54,1.44,3.39,1.2,4.08,1a4,4,0,0,1,2.47,0,1.43,1.43,0,0,0,.74,0,4,4,0,0,1,2.49,0c.69.24,3.54.48,4.08-1A5.64,5.64,0,0,1,48.7,59.88Z"/><path class="cls-3" d="M45.38,54.07a.53.53,0,0,1-.49-.34.52.52,0,0,1,.29-.68l1.4-.56a.52.52,0,0,1,.68.29.53.53,0,0,1-.29.69l-1.4.56A.65.65,0,0,1,45.38,54.07Z"/><path class="cls-3" d="M43.7,54.07a.65.65,0,0,1-.19,0l-1.4-.56a.53.53,0,0,1-.29-.69.52.52,0,0,1,.68-.29l1.4.56a.52.52,0,0,1,.29.68A.53.53,0,0,1,43.7,54.07Z"/><path class="cls-3" d="M62.69,43.26,61.6,42.4a3.25,3.25,0,0,0,.46-1.3.24.24,0,0,0-.12-.21.23.23,0,0,0-.24,0c-4.05,3.6-9.09.86-9.14.84a.21.21,0,0,0-.25,0,.22.22,0,0,0-.05.25,3.81,3.81,0,0,0,1.13,1.38,5.62,5.62,0,0,0,3.54,1.1l.72,0a5.77,5.77,0,0,0,2.81-.9l2.09,0h0a.21.21,0,0,0,.2-.15A.2.2,0,0,0,62.69,43.26Z"/><path class="cls-3" d="M26.39,43.26l1.09-.86A3.25,3.25,0,0,1,27,41.1a.24.24,0,0,1,.12-.21.23.23,0,0,1,.24,0c4.05,3.6,9.09.86,9.14.84a.21.21,0,0,1,.25,0,.22.22,0,0,1,0,.25,3.77,3.77,0,0,1-1.14,1.38,5.56,5.56,0,0,1-3.53,1.1l-.72,0a5.77,5.77,0,0,1-2.81-.9l-2.09,0h0a.21.21,0,0,1-.2-.15A.19.19,0,0,1,26.39,43.26Z"/></g></g></svg>